<?xml version="1.0" encoding="UTF-8"?>
<!DOCTYPE svg PUBLIC "-//W3C//DTD SVG 1.1//EN" "http://www.w3.org/Graphics/SVG/1.1/DTD/svg11.dtd">
<!-- Creator: CorelDRAW X7 -->
<svg xmlns="http://www.w3.org/2000/svg" xml:space="preserve" width="220mm" height="220mm" version="1.1" style="shape-rendering:geometricPrecision; text-rendering:geometricPrecision; image-rendering:optimizeQuality; fill-rule:evenodd; clip-rule:evenodd"
viewBox="0 0 22000 22000"
 xmlns:xlink="http://www.w3.org/1999/xlink">
 <defs>
  <style type="text/css">
   <![CDATA[
    .fil0 {fill:none}
    .fil1 {fill:#43B9AA}
    .fil2 {fill:#43B9AA;fill-rule:nonzero}
   ]]>
  </style>
 </defs>
 <g id="Layer_x0020_1">
  <metadata id="CorelCorpID_0Corel-Layer"/>
  <rect class="fil0" width="22000" height="22000"/>
  <g id="_447832976">
   <path class="fil1" d="M2338 10411c50,31 133,9 189,-3 38,-8 80,-11 118,-20 111,-25 227,-42 339,-79 35,-11 75,-18 111,-27l164 -44c18,-5 34,-12 54,-16 74,-18 142,-43 217,-61 53,-13 107,-35 158,-50 16,-5 38,-7 56,-14 66,-27 437,-136 530,-165l531 -164c82,-20 230,-75 320,-96 39,-10 67,-20 107,-32l651 -182c17,-5 41,-7 58,-12l387 -99c86,-27 249,-58 341,-76 22,-4 35,-10 55,-15 59,-12 123,-15 176,-31 30,-9 83,-19 115,-25l179 -29c88,-23 317,-60 414,-72 46,-6 78,-13 121,-20 78,-12 162,-21 242,-35 80,-15 166,-20 246,-31 280,-38 741,-84 1021,-89 89,-2 174,-10 258,-10l313 -4c299,-7 600,22 897,53 268,27 680,112 941,185 116,33 231,83 344,127 30,11 54,24 79,35l321 146c28,13 54,26 81,38l619 314c32,14 46,26 74,39l605 329c72,37 223,140 313,153 78,11 353,10 449,10 12,0 17,-4 23,-8 -56,-61 -581,-337 -642,-373l-123 -65c-16,-8 -27,-16 -42,-23l-168 -85c-27,-12 -54,-27 -82,-42l-598 -295c-248,-116 -456,-212 -712,-310 -144,-55 -260,-93 -408,-138 -19,-4 -34,-10 -53,-16 -444,-131 -1205,-224 -1660,-224l-621 0c-178,0 -347,16 -520,25 -165,9 -331,28 -494,50 -84,11 -162,14 -245,28 -77,14 -161,25 -239,35l-235 38c-149,22 -376,61 -520,94 -19,5 -39,6 -61,10 -21,4 -28,10 -55,15 -20,3 -36,4 -59,9 -151,35 -303,62 -455,96 -21,5 -29,11 -49,15 -71,14 -149,32 -219,54 -19,6 -39,6 -58,12 -216,61 -433,113 -648,175l-573 176c-19,5 -33,12 -53,18 -31,9 -71,22 -105,33l-206 67c-34,10 -69,21 -101,33l-515 175c-48,22 -147,53 -203,70l-409 136c-34,9 -69,26 -104,35 -37,9 -71,16 -108,32l-536 143c-53,16 -169,39 -230,48 -30,5 -95,10 -108,29z"/>
   <path class="fil1" d="M10782 10368c91,19 588,32 714,41 49,4 98,9 148,10 98,1 198,11 293,12 192,3 394,17 582,28 90,5 193,5 286,11 98,6 198,10 298,12 97,1 197,9 288,12 181,6 431,14 605,13 97,-1 197,9 298,10 103,0 183,3 288,2 101,0 198,10 297,13 99,3 197,5 294,12 137,10 442,21 570,39 182,26 367,33 548,64 113,18 349,49 458,73l318 69c46,10 84,21 125,29 114,22 472,136 586,178 128,47 294,125 393,222 13,13 28,25 39,36l150 157c13,16 18,23 35,40l140 167c11,13 23,25 35,40l212 249c22,23 97,109 121,112 10,-26 -45,-94 -59,-119 -20,-37 -54,-83 -77,-117 -39,-57 -74,-114 -120,-168 -15,-17 -26,-39 -40,-59l-169 -213c-16,-23 -26,-32 -41,-53 -41,-58 -126,-122 -99,-175 108,-26 306,48 401,101 134,75 308,174 427,262 20,15 88,59 108,63 0,-11 -1,-7 -7,-14l-5 -6c-70,-76 -187,-158 -276,-214l-93 -62c-17,-10 -29,-15 -47,-26 -226,-142 -361,-196 -619,-295 -73,-29 -151,-49 -226,-76l-237 -71c-109,-28 -240,-70 -360,-97 -252,-58 -500,-113 -756,-156 -91,-16 -176,-24 -264,-39 -103,-18 -446,-48 -557,-51 -92,-2 -191,-15 -287,-15 -51,-1 -94,-7 -144,-7 -28,0 -46,-4 -70,-6 -26,-2 -52,1 -78,-1 -84,-8 -205,-9 -294,-9 -200,0 -402,-7 -605,-6 -472,1 -991,-9 -1479,-9 -99,0 -204,3 -302,0 -94,-4 -203,1 -298,-6 -90,-6 -212,-4 -303,-4 -93,0 -183,2 -268,-4 -93,-7 -203,2 -283,-4 -91,-8 -209,-1 -302,-1 -70,0 -147,-4 -218,0 -25,1 -42,6 -74,6z"/>
   <path class="fil1" d="M2620 10446c17,15 288,42 332,49 31,4 59,4 86,8 32,4 56,10 87,13 29,3 58,4 89,7 55,6 47,12 115,12l397 -54c138,-13 272,-30 412,-43 284,-26 571,-48 858,-48l466 -3c86,0 185,10 273,9 88,0 679,35 804,48 87,9 172,19 258,27 43,4 84,8 129,10 44,3 84,11 129,14 104,8 719,66 787,15l-531 -91c-31,-4 -55,-12 -79,-15 -212,-33 -416,-64 -629,-98 -49,-8 -106,-14 -158,-20 -52,-6 -104,-15 -156,-21 -108,-13 -551,-60 -663,-61 -113,-2 -270,-19 -342,-19l-422 0c-53,0 -217,16 -293,16 -104,-1 -202,11 -298,15 -198,9 -386,30 -580,46 -110,8 -428,51 -553,72 -21,4 -42,6 -66,9l-336 60c-23,6 -41,13 -63,17 -35,8 -37,-1 -53,26z"/>
   <path class="fil1" d="M5695 9920c0,39 25,60 58,81 136,90 507,127 678,145l245 30c39,5 85,5 127,11 104,15 255,24 372,34 120,11 272,16 387,29 115,14 251,15 381,27l392 21c84,1 178,8 263,13 89,5 174,6 263,12 45,3 89,-1 135,3 42,3 90,6 133,7 73,2 459,15 522,1 -8,-6 1,-3 -12,-6l-251 -12c-92,-10 -169,-14 -264,-14 -80,0 -161,-13 -243,-16 -184,-7 -307,-25 -491,-32 -153,-5 -330,-25 -486,-35 -84,-6 -163,-16 -249,-19l-947 -97c-39,-5 -72,-13 -113,-17 -101,-11 -244,-36 -341,-54 -99,-19 -211,-41 -300,-88 -210,-108 829,-375 863,-387 27,-10 76,-18 107,-26 72,-18 250,-67 314,-79l317 -74c116,-27 333,-72 438,-88 108,-15 230,-40 334,-52 45,-5 77,-7 119,-15l350 -43c42,-2 85,-4 123,-11 92,-15 302,-24 421,-35 22,-2 44,0 67,-3 82,-8 165,-9 248,-15 40,-4 85,-3 124,-5 44,-3 87,-4 131,-4l-16 -6c-109,-28 -494,-15 -627,-7 -172,11 -389,8 -557,31 -85,12 -179,19 -265,27 -91,8 -173,21 -260,31 -313,38 -687,112 -998,175 -20,4 -36,9 -56,12 -113,20 -304,73 -418,99 -21,4 -35,7 -55,14 -22,8 -36,9 -59,15 -116,33 -904,250 -904,422z"/>
   <path class="fil1" d="M2142 11453l0 55c0,33 -26,109 -9,134 18,-21 28,-55 33,-82 23,-127 14,-121 0,-249 -16,-138 -18,-66 -18,-220 0,-26 5,-50 9,-75 7,-37 0,-40 26,-64 72,-67 131,-96 200,-147 53,-38 74,-18 142,-13l315 32c65,9 131,2 132,44 1,41 -65,56 -73,97 40,2 347,-132 410,-162 24,-13 58,-23 78,-36 18,-11 148,-70 165,-70 82,0 87,10 179,17 33,2 164,37 197,15 -19,-16 -59,-11 -88,-14 -32,-4 -11,-10 -88,-17 -15,-1 -32,-2 -46,-5 -17,-3 -22,-7 -43,-10 -34,-6 -66,-6 -96,-13l-731 -112c-105,-13 -174,-30 -277,-41l-184 -30c-24,-6 -74,-20 -62,16 12,38 14,44 44,61 143,83 93,92 -74,235 -29,25 -20,7 -88,71l-76 78c-7,11 -17,22 -22,33 -12,30 -11,166 -8,204 3,49 9,47 23,86 6,18 30,163 30,182z"/>
   <path class="fil1" d="M11889 10992c6,17 21,13 69,17 30,3 62,5 89,6 61,4 113,14 173,17l1026 90c52,8 114,8 169,14l337 36c56,7 113,13 170,18 150,14 337,48 488,74 48,8 69,18 72,-9 4,-26 -19,-56 -4,-79 15,-18 335,-9 396,-12 68,-4 229,17 311,-20 1,-1 15,-9 15,-10 10,-9 7,0 11,-18 -29,-18 -347,-23 -402,-27 -70,-5 -137,-6 -207,-10 -66,-5 -137,-9 -209,-10 -137,-2 -272,-19 -412,-19 -135,1 -281,-15 -416,-19 -194,-6 -440,-22 -631,-22 -62,0 -143,-2 -208,-7 -140,-8 -279,-10 -422,-12l-397 -10c-36,5 -12,3 -18,12z"/>
   <path class="fil1" d="M18937 11519c-18,-8 -58,-27 -77,-11 7,10 -11,0 11,13l361 164c13,7 14,10 32,18 82,35 328,161 384,211 18,16 34,26 48,41 38,40 58,86 58,143 0,56 -63,232 -87,287 -33,75 -34,68 40,68 110,0 205,-185 205,-320 0,-76 10,-127 -26,-174 -96,-122 -431,-242 -583,-310l-328 -119c-10,-3 -26,-6 -38,-11z"/>
   <path class="fil1" d="M12431 10215c70,5 -17,-112 173,-140 172,-25 374,32 533,94 52,20 112,50 154,84 22,19 17,29 26,59 17,1 60,-12 72,-22 17,-14 16,-36 7,-52 -19,-35 -95,-72 -129,-90 -169,-87 -447,-147 -638,-116 -89,15 -227,54 -198,183z"/>
  </g>
  <path class="fil1" d="M3991 11838c25,-8 9,3 22,-27 11,-27 3,-9 16,-26l51 -86c7,-11 9,-9 18,-23l123 -147c75,-78 99,-100 183,-169 174,-143 380,-231 597,-292 262,-74 667,-55 926,50 112,46 257,107 354,183l148 116c58,48 165,164 212,229 27,36 46,63 73,100 85,120 186,358 211,499 20,112 39,187 42,310 2,107 -23,281 -13,329 15,-5 9,1 17,-15 1,-3 3,-15 4,-19 11,-59 26,-89 29,-115 7,-58 20,-111 25,-167 13,-154 10,-393 -38,-537 -9,-26 -12,-49 -19,-77 -35,-126 -146,-363 -223,-458 -96,-120 -74,-105 -178,-209l-75 -70c-54,-51 -190,-152 -253,-182 -129,-63 -118,-65 -267,-121 -92,-34 -203,-66 -311,-77 -359,-34 -619,3 -931,161 -12,6 -21,7 -34,13l-121 76c-41,27 -73,48 -112,80 -88,73 -174,153 -245,244l-42 54c-59,81 -100,145 -145,237 -26,55 -61,105 -44,136z"/>
  <path class="fil1" d="M15190 11933c26,-39 62,-110 98,-152 62,-73 129,-147 203,-210 14,-13 30,-27 45,-38 43,-34 107,-89 146,-105l160 -85c168,-80 327,-111 531,-133 165,-17 303,15 451,42l125 36c221,91 304,136 474,273 130,104 176,180 274,305 49,63 86,156 119,216l70 180c7,29 8,36 17,61 13,34 18,99 28,139 34,136 -4,438 16,467 20,-7 20,-45 24,-67 5,-29 14,-43 19,-70 32,-167 28,-334 9,-499 -13,-116 -75,-324 -125,-419 -92,-179 -161,-281 -303,-425 -97,-100 -192,-159 -310,-234 -36,-23 -77,-40 -118,-61 -41,-20 -87,-32 -129,-50 -171,-74 -443,-89 -647,-72 -196,16 -465,109 -611,207 -36,25 -70,42 -104,75 -13,12 -64,40 -106,79 -18,16 -27,29 -43,47 -25,27 -67,59 -92,87 -39,45 -61,91 -77,108 -76,80 -72,109 -105,164 -11,19 -12,11 -21,26l-40 92c-7,17 -32,37 -12,65l34 -49z"/>
  <g id="_447821336">
   <g>
    <path class="fil1" d="M5522 11893c18,0 33,15 33,33 0,19 -15,34 -33,34 -19,0 -34,-15 -34,-34 0,-18 15,-33 34,-33z"/>
    <path class="fil1" d="M5443 11820c19,0 36,16 36,36 0,20 -17,37 -36,37 -20,0 -37,-17 -37,-37 0,-20 17,-36 37,-36z"/>
    <path class="fil1" d="M5340 11756c25,0 44,19 44,43 0,24 -19,44 -44,44 -24,0 -43,-20 -43,-44 0,-24 19,-43 43,-43z"/>
    <path class="fil1" d="M5205 11703c31,0 57,25 57,57 0,31 -26,57 -57,57 -32,0 -57,-26 -57,-57 0,-32 25,-57 57,-57z"/>
    <path class="fil1" d="M5038 11683c36,0 66,29 66,65 0,36 -30,66 -66,66 -36,0 -65,-30 -65,-66 0,-36 29,-65 65,-65z"/>
    <path class="fil1" d="M4842 11711c41,0 74,33 74,74 0,41 -33,74 -74,74 -41,0 -74,-33 -74,-74 0,-41 33,-74 74,-74z"/>
    <path class="fil1" d="M5468 12013c20,-5 41,6 47,27 6,20 -6,40 -26,46 -20,6 -41,-6 -47,-26 -5,-20 6,-41 26,-47z"/>
    <path class="fil1" d="M5360 11953c22,-6 44,7 50,28 6,22 -6,45 -28,51 -22,6 -44,-7 -50,-28 -7,-22 6,-45 28,-51z"/>
    <path class="fil1" d="M5218 11908c27,-8 54,8 61,34 8,26 -8,53 -34,61 -26,7 -53,-8 -61,-34 -7,-27 8,-54 34,-61z"/>
    <path class="fil1" d="M5051 11887c35,-9 70,10 80,45 10,34 -10,70 -45,79 -34,10 -70,-10 -79,-44 -10,-34 10,-70 44,-80z"/>
    <path class="fil1" d="M4849 11909c39,-11 80,11 91,51 12,39 -11,80 -51,91 -39,11 -80,-11 -91,-51 -11,-39 12,-80 51,-91z"/>
    <path class="fil1" d="M4635 11996c44,-12 90,13 103,58 12,44 -14,90 -58,103 -44,12 -90,-13 -103,-58 -12,-44 13,-90 58,-103z"/>
    <path class="fil1" d="M5435 12155c22,-12 49,-4 60,17 12,22 4,49 -18,61 -21,11 -48,3 -60,-18 -11,-22 -3,-49 18,-60z"/>
    <path class="fil1" d="M5295 12114c24,-13 53,-4 65,19 13,23 4,52 -19,65 -23,13 -52,4 -65,-19 -12,-24 -4,-53 19,-65z"/>
    <path class="fil1" d="M5122 12098c28,-15 63,-5 78,23 16,28 5,64 -23,79 -28,15 -63,5 -79,-24 -15,-28 -4,-63 24,-78z"/>
    <path class="fil1" d="M4925 12117c37,-20 83,-6 103,31 20,37 6,82 -30,102 -37,20 -83,7 -103,-30 -20,-37 -6,-83 30,-103z"/>
    <path class="fil1" d="M4700 12194c42,-23 94,-7 117,35 23,42 7,95 -35,118 -42,22 -95,7 -117,-35 -23,-43 -8,-95 35,-118z"/>
    <path class="fil1" d="M4477 12349c47,-26 107,-8 133,39 25,48 8,107 -40,133 -47,26 -107,8 -133,-39 -25,-48 -8,-107 40,-133z"/>
   </g>
   <g>
    <path class="fil1" d="M4865 12483c-9,-16 -4,-37 12,-46 16,-10 36,-5 46,11 9,16 4,36 -12,46 -16,10 -36,4 -46,-11z"/>
    <path class="fil1" d="M4844 12588c-10,-17 -5,-40 12,-50 18,-10 40,-5 50,12 10,18 5,40 -12,50 -17,10 -40,5 -50,-12z"/>
    <path class="fil1" d="M4842 12708c-13,-20 -6,-47 14,-59 21,-13 48,-6 60,14 13,21 6,48 -15,60 -20,13 -47,6 -59,-15z"/>
    <path class="fil1" d="M4866 12852c-16,-27 -8,-62 19,-78 27,-16 62,-8 79,19 16,27 7,62 -20,79 -27,16 -62,7 -78,-20z"/>
    <path class="fil1" d="M4935 13005c-19,-31 -9,-71 22,-90 31,-18 71,-8 90,23 19,31 9,71 -22,89 -31,19 -71,9 -90,-22z"/>
    <path class="fil1" d="M5061 13158c-21,-35 -10,-80 25,-101 35,-21 80,-10 101,25 21,35 10,80 -25,101 -35,21 -80,10 -101,-25z"/>
    <path class="fil1" d="M4996 12466c-15,-14 -16,-38 -1,-53 14,-16 38,-16 53,-2 15,14 16,38 2,53 -15,15 -38,16 -54,2z"/>
    <path class="fil1" d="M5001 12590c-17,-15 -18,-41 -2,-58 15,-16 41,-17 58,-2 16,16 17,42 2,58 -16,17 -42,17 -58,2z"/>
    <path class="fil1" d="M5035 12735c-20,-19 -21,-50 -2,-70 18,-20 49,-21 69,-2 20,18 21,50 3,69 -19,20 -50,21 -70,3z"/>
    <path class="fil1" d="M5103 12888c-26,-24 -27,-65 -3,-91 25,-26 66,-27 92,-3 26,25 27,65 3,91 -25,26 -66,28 -92,3z"/>
    <path class="fil1" d="M5226 13051c-30,-28 -31,-75 -3,-105 28,-30 75,-31 104,-3 30,28 32,74 4,104 -28,30 -75,32 -105,4z"/>
    <path class="fil1" d="M5412 13189c-34,-31 -36,-84 -4,-118 31,-34 84,-35 118,-4 33,32 35,85 4,118 -32,34 -85,36 -118,4z"/>
    <path class="fil1" d="M5134 12422c-21,-13 -28,-40 -15,-61 12,-21 39,-28 60,-16 21,13 28,40 16,61 -12,21 -40,28 -61,16z"/>
    <path class="fil1" d="M5171 12562c-23,-13 -30,-42 -17,-65 14,-23 43,-31 66,-17 23,13 30,43 17,65 -13,23 -43,31 -66,17z"/>
    <path class="fil1" d="M5247 12719c-27,-16 -36,-52 -20,-79 16,-28 52,-37 79,-21 28,17 37,52 21,80 -16,27 -52,36 -80,20z"/>
    <path class="fil1" d="M5365 12877c-36,-21 -48,-67 -26,-103 21,-36 67,-48 103,-27 36,21 48,68 27,104 -21,36 -68,48 -104,26z"/>
    <path class="fil1" d="M5547 13031c-41,-24 -55,-77 -30,-118 24,-42 77,-56 119,-31 41,24 55,77 30,119 -24,41 -77,55 -119,30z"/>
    <path class="fil1" d="M5795 13142c-46,-27 -62,-87 -34,-134 27,-46 87,-62 134,-34 46,27 62,87 34,134 -27,46 -87,62 -134,34z"/>
   </g>
   <g>
    <path class="fil1" d="M5693 12754c-10,16 -30,21 -46,12 -16,-10 -21,-30 -12,-46 9,-16 30,-21 46,-12 16,9 21,30 12,46z"/>
    <path class="fil1" d="M5795 12722c-10,17 -32,23 -49,13 -17,-10 -23,-32 -13,-49 10,-18 32,-23 49,-13 18,10 23,32 13,49z"/>
    <path class="fil1" d="M5902 12667c-12,20 -38,27 -59,15 -21,-12 -28,-39 -16,-59 12,-21 39,-28 60,-16 21,12 28,39 15,60z"/>
    <path class="fil1" d="M6017 12577c-16,27 -51,36 -78,20 -27,-16 -36,-51 -20,-78 16,-27 50,-36 78,-20 27,15 36,50 20,78z"/>
    <path class="fil1" d="M6118 12443c-18,31 -58,41 -89,23 -31,-18 -42,-58 -23,-89 18,-32 58,-42 89,-24 31,19 42,59 23,90z"/>
    <path class="fil1" d="M6193 12259c-21,35 -66,47 -101,26 -35,-20 -47,-65 -26,-100 20,-36 65,-47 100,-27 36,21 47,66 27,101z"/>
    <path class="fil1" d="M5615 12647c-5,20 -25,32 -46,27 -20,-6 -32,-26 -27,-46 6,-21 26,-33 46,-27 21,5 33,25 27,46z"/>
    <path class="fil1" d="M5722 12583c-5,22 -28,35 -50,30 -21,-6 -35,-28 -29,-50 6,-22 28,-35 50,-29 22,5 35,28 29,49z"/>
    <path class="fil1" d="M5833 12484c-7,27 -34,43 -60,36 -26,-7 -42,-34 -35,-61 6,-26 33,-42 60,-35 26,7 42,34 35,60z"/>
    <path class="fil1" d="M5935 12351c-9,34 -44,55 -78,46 -35,-9 -56,-44 -47,-79 9,-34 45,-55 79,-46 35,9 55,44 46,79z"/>
    <path class="fil1" d="M6019 12165c-10,40 -51,64 -90,53 -40,-10 -64,-50 -53,-90 10,-40 51,-63 90,-53 40,10 63,51 53,90z"/>
    <path class="fil1" d="M6052 11936c-12,45 -57,72 -102,60 -44,-12 -71,-57 -59,-102 11,-44 57,-71 101,-60 45,12 72,58 60,102z"/>
    <path class="fil1" d="M5511 12547c-1,24 -22,43 -46,42 -25,0 -44,-21 -43,-45 1,-25 21,-44 46,-43 24,1 43,21 43,46z"/>
    <path class="fil1" d="M5617 12447c-1,26 -24,47 -50,46 -26,-1 -47,-23 -46,-49 1,-27 23,-48 49,-47 27,1 47,23 47,50z"/>
    <path class="fil1" d="M5718 12305c-1,32 -28,57 -60,56 -32,-1 -57,-28 -56,-60 1,-32 28,-57 60,-56 32,1 57,28 56,60z"/>
    <path class="fil1" d="M5800 12126c-1,42 -36,74 -78,73 -41,-2 -74,-37 -73,-78 2,-42 37,-75 78,-73 42,1 75,36 73,78z"/>
    <path class="fil1" d="M5849 11892c-2,48 -42,86 -90,84 -48,-2 -85,-42 -84,-90 2,-48 42,-85 90,-84 48,2 85,42 84,90z"/>
    <path class="fil1" d="M5828 11622c-2,54 -48,96 -102,94 -54,-2 -96,-47 -94,-101 2,-54 47,-96 101,-94 54,1 96,47 95,101z"/>
   </g>
  </g>
  <g id="_447808472">
   <g>
    <path class="fil1" d="M16664 11921c18,0 33,15 33,34 0,18 -15,33 -33,33 -19,0 -34,-15 -34,-33 0,-19 15,-34 34,-34z"/>
    <path class="fil1" d="M16585 11849c20,0 36,16 36,36 0,20 -16,36 -36,36 -20,0 -36,-16 -36,-36 0,-20 16,-36 36,-36z"/>
    <path class="fil1" d="M16483 11784c24,0 43,20 43,44 0,24 -19,44 -43,44 -24,0 -44,-20 -44,-44 0,-24 20,-44 44,-44z"/>
    <path class="fil1" d="M16347 11731c32,0 57,26 57,57 0,32 -25,57 -57,57 -31,0 -57,-25 -57,-57 0,-31 26,-57 57,-57z"/>
    <path class="fil1" d="M16180 11711c37,0 66,30 66,66 0,36 -29,65 -66,65 -36,0 -65,-29 -65,-65 0,-36 29,-66 65,-66z"/>
    <path class="fil1" d="M15984 11740c41,0 74,33 74,74 0,41 -33,74 -74,74 -40,0 -73,-33 -73,-74 0,-41 33,-74 73,-74z"/>
    <path class="fil1" d="M16611 12042c20,-6 41,6 46,26 6,20 -6,41 -26,47 -20,6 -41,-6 -46,-26 -6,-20 6,-41 26,-47z"/>
    <path class="fil1" d="M16502 11982c22,-6 44,6 51,28 6,22 -7,44 -29,51 -21,6 -44,-7 -50,-29 -6,-21 6,-44 28,-50z"/>
    <path class="fil1" d="M16361 11936c26,-7 53,8 60,35 8,26 -7,53 -34,60 -26,8 -53,-7 -61,-34 -7,-26 8,-53 35,-61z"/>
    <path class="fil1" d="M16194 11916c34,-10 69,10 79,44 10,35 -10,70 -44,80 -35,10 -70,-10 -80,-44 -10,-35 10,-70 45,-80z"/>
    <path class="fil1" d="M15991 11937c40,-11 81,12 92,52 11,39 -12,80 -51,91 -40,11 -81,-12 -92,-51 -11,-40 12,-80 51,-92z"/>
    <path class="fil1" d="M15777 12025c44,-13 90,13 103,57 12,45 -13,91 -58,103 -44,13 -90,-13 -103,-57 -12,-45 14,-91 58,-103z"/>
    <path class="fil1" d="M16577 12183c22,-11 49,-3 60,18 12,22 4,49 -17,60 -22,12 -49,4 -60,-18 -12,-21 -4,-48 17,-60z"/>
    <path class="fil1" d="M16438 12142c23,-12 52,-4 65,20 12,23 4,52 -20,65 -23,12 -52,4 -65,-20 -12,-23 -4,-52 20,-65z"/>
    <path class="fil1" d="M16264 12127c28,-16 63,-5 79,23 15,28 4,63 -24,78 -28,16 -63,5 -78,-23 -15,-28 -5,-63 23,-78z"/>
    <path class="fil1" d="M16068 12146c36,-20 82,-6 102,30 20,37 7,83 -30,103 -37,20 -83,6 -103,-30 -20,-37 -6,-83 31,-103z"/>
    <path class="fil1" d="M15842 12223c42,-23 95,-8 118,35 22,42 7,94 -35,117 -43,23 -95,7 -118,-35 -23,-42 -7,-95 35,-117z"/>
    <path class="fil1" d="M15619 12378c48,-26 107,-8 133,39 26,48 8,107 -40,133 -47,25 -107,8 -132,-40 -26,-47 -8,-107 39,-132z"/>
   </g>
   <g>
    <path class="fil1" d="M16008 12511c-10,-16 -5,-36 11,-46 16,-9 36,-4 46,12 9,16 4,36 -11,46 -16,9 -37,4 -46,-12z"/>
    <path class="fil1" d="M15986 12616c-10,-17 -4,-39 13,-49 17,-10 39,-5 49,12 11,17 5,39 -12,50 -17,10 -39,5 -50,-13z"/>
    <path class="fil1" d="M15984 12737c-13,-21 -6,-47 15,-60 20,-12 47,-6 60,15 12,21 5,48 -15,60 -21,12 -48,6 -60,-15z"/>
    <path class="fil1" d="M16008 12881c-16,-27 -7,-62 20,-78 27,-17 62,-8 78,19 16,27 7,62 -19,78 -27,16 -62,8 -79,-19z"/>
    <path class="fil1" d="M16077 13034c-18,-31 -8,-71 22,-90 31,-19 72,-9 90,22 19,31 9,72 -22,90 -31,19 -71,9 -90,-22z"/>
    <path class="fil1" d="M16203 13187c-21,-35 -10,-80 25,-101 35,-21 80,-10 101,25 21,35 10,80 -25,101 -35,21 -80,10 -101,-25z"/>
    <path class="fil1" d="M16139 12495c-16,-15 -16,-39 -2,-54 14,-15 38,-16 53,-2 15,15 16,39 2,54 -14,15 -38,16 -53,2z"/>
    <path class="fil1" d="M16143 12619c-17,-16 -17,-42 -2,-58 16,-17 41,-17 58,-2 16,15 17,41 2,58 -16,16 -42,17 -58,2z"/>
    <path class="fil1" d="M16177 12763c-20,-18 -21,-50 -2,-69 18,-20 50,-21 70,-3 20,19 21,50 2,70 -19,20 -50,21 -70,2z"/>
    <path class="fil1" d="M16246 12917c-26,-24 -28,-65 -3,-91 24,-26 65,-27 91,-3 26,24 27,65 3,91 -25,26 -65,27 -91,3z"/>
    <path class="fil1" d="M16368 13079c-29,-28 -31,-75 -3,-104 28,-30 75,-32 105,-4 30,28 31,75 3,105 -28,30 -75,31 -105,3z"/>
    <path class="fil1" d="M16554 13218c-34,-32 -35,-85 -4,-118 32,-34 84,-36 118,-4 34,31 35,84 4,118 -32,34 -84,35 -118,4z"/>
    <path class="fil1" d="M16277 12450c-21,-12 -28,-39 -16,-60 12,-21 40,-28 61,-16 21,12 28,40 15,61 -12,21 -39,28 -60,15z"/>
    <path class="fil1" d="M16314 12591c-23,-13 -31,-43 -17,-66 13,-22 42,-30 65,-17 23,14 31,43 17,66 -13,23 -43,31 -65,17z"/>
    <path class="fil1" d="M16390 12748c-28,-16 -37,-52 -21,-79 16,-28 52,-37 80,-21 27,16 36,52 20,79 -16,28 -52,37 -79,21z"/>
    <path class="fil1" d="M16508 12906c-36,-21 -48,-68 -27,-104 21,-36 67,-47 103,-26 36,21 48,67 27,103 -21,36 -67,48 -103,27z"/>
    <path class="fil1" d="M16690 13060c-42,-24 -55,-77 -31,-119 24,-41 78,-55 119,-31 41,25 55,78 31,119 -25,42 -78,55 -119,31z"/>
    <path class="fil1" d="M16937 13171c-46,-28 -62,-88 -34,-134 27,-47 87,-62 134,-35 46,28 62,88 34,134 -27,47 -87,62 -134,35z"/>
   </g>
   <g>
    <path class="fil1" d="M16835 12782c-9,16 -30,22 -46,12 -16,-9 -21,-30 -12,-45 10,-16 30,-22 46,-12 16,9 21,29 12,45z"/>
    <path class="fil1" d="M16937 12751c-10,17 -32,23 -49,13 -17,-10 -23,-33 -13,-50 10,-17 32,-23 50,-13 17,10 23,33 12,50z"/>
    <path class="fil1" d="M17045 12695c-12,21 -39,28 -60,16 -21,-12 -28,-39 -16,-60 13,-21 39,-28 60,-15 21,12 28,39 16,59z"/>
    <path class="fil1" d="M17159 12605c-16,27 -51,36 -78,21 -27,-16 -36,-51 -20,-78 16,-28 51,-37 78,-21 27,16 36,51 20,78z"/>
    <path class="fil1" d="M17261 12472c-19,31 -59,41 -90,23 -31,-18 -41,-59 -23,-90 18,-31 58,-41 89,-23 32,18 42,58 24,90z"/>
    <path class="fil1" d="M17335 12288c-21,35 -66,47 -101,26 -35,-20 -47,-66 -26,-101 20,-35 66,-47 101,-26 35,21 47,66 26,101z"/>
    <path class="fil1" d="M16758 12675c-6,21 -26,33 -46,27 -21,-5 -33,-26 -27,-46 5,-20 25,-32 46,-27 20,6 32,26 27,46z"/>
    <path class="fil1" d="M16865 12612c-6,22 -28,35 -50,29 -22,-5 -35,-28 -30,-49 6,-22 28,-35 50,-30 22,6 35,28 30,50z"/>
    <path class="fil1" d="M16975 12513c-6,26 -33,42 -60,35 -26,-7 -42,-33 -35,-60 7,-26 34,-42 60,-35 26,7 42,34 35,60z"/>
    <path class="fil1" d="M17078 12379c-9,35 -45,55 -79,47 -35,-9 -55,-45 -46,-79 9,-35 44,-55 78,-46 35,9 56,44 47,78z"/>
    <path class="fil1" d="M17161 12194c-10,40 -50,63 -90,53 -40,-10 -63,-51 -53,-90 10,-40 51,-64 90,-53 40,10 64,50 53,90z"/>
    <path class="fil1" d="M17194 11965c-11,44 -57,71 -101,60 -45,-12 -72,-58 -60,-102 11,-45 57,-72 102,-60 44,12 71,57 59,102z"/>
    <path class="fil1" d="M16653 12575c-1,25 -22,44 -46,43 -24,-1 -44,-21 -43,-46 1,-24 22,-43 46,-43 24,1 44,22 43,46z"/>
    <path class="fil1" d="M16759 12476c-1,26 -23,47 -50,46 -26,-1 -47,-23 -46,-50 1,-26 23,-47 50,-46 26,1 47,23 46,50z"/>
    <path class="fil1" d="M16860 12334c-1,32 -28,57 -60,56 -32,-2 -57,-28 -56,-60 1,-32 28,-57 60,-56 32,1 57,28 56,60z"/>
    <path class="fil1" d="M16943 12154c-2,42 -37,75 -78,74 -42,-2 -75,-37 -73,-79 1,-41 36,-74 78,-73 41,2 74,37 73,78z"/>
    <path class="fil1" d="M16991 11921c-2,48 -42,85 -90,84 -48,-2 -85,-42 -84,-90 2,-48 42,-85 90,-84 48,2 86,42 84,90z"/>
    <path class="fil1" d="M16970 11650c-2,54 -47,97 -101,95 -54,-2 -97,-47 -95,-101 2,-54 47,-97 101,-95 54,2 97,47 95,101z"/>
   </g>
  </g>
  <path class="fil2" d="M8641 12568c-36,65 -96,115 -179,149 -47,20 -94,30 -141,30 -111,0 -204,-49 -279,-147 -65,-87 -98,-187 -98,-301 0,-132 42,-243 124,-332 73,-76 157,-114 253,-115 94,0 178,32 252,96 28,26 49,53 63,81l124 -62c-41,-80 -111,-146 -210,-196 -76,-38 -152,-57 -229,-57 -137,0 -256,54 -354,162 -107,114 -160,256 -160,423 0,167 52,307 158,422 100,108 219,162 356,163 124,0 238,-43 341,-130 43,-37 76,-76 100,-118l-121 -68zm365 275l384 -886 384 886 19 41 150 0 -42 -96 -447 -1033 -19 -41 -90 0 -19 41 -447 1033 -41 96 149 0 19 -41zm1763 -504c90,-39 152,-102 184,-188 14,-35 21,-72 21,-108 0,-99 -41,-181 -121,-246 -67,-56 -145,-83 -234,-83l-435 2 -69 0 0 69 -2 514 0 69 0 447 0 69 138 0 0 -69 0 -447 346 0c56,42 102,102 139,179 31,67 65,162 103,287l14 50 145 0 -28 -87c-68,-228 -135,-380 -201,-458zm-367 -107l-151 0 0 -380 368 0c77,0 137,27 179,82 25,34 38,70 38,109 0,67 -32,120 -97,156 -36,21 -76,31 -118,31l-221 0 2 2zm823 -449l0 1032 0 69 137 0 0 -69 0 -1032 0 -69 -137 0 0 69zm368 516c0,167 53,307 158,422 101,108 221,162 358,163 138,0 257,-54 357,-161 106,-116 160,-257 160,-424 0,-166 -53,-307 -159,-422 -101,-107 -220,-162 -358,-163 -137,0 -256,54 -356,162 -107,116 -160,257 -160,423zm138 0c0,-132 42,-243 125,-332 73,-76 157,-114 253,-115 112,0 205,48 279,144 67,87 100,188 100,303 0,132 -42,243 -126,332 -72,76 -156,114 -253,116 -111,0 -204,-49 -278,-145 -67,-87 -100,-188 -100,-303zm1551 -585l-138 0 -312 0 -69 0 0 138 69 0 312 0 0 963 0 69 138 0 0 -69 0 -963 308 0 68 0 0 -138 -68 0 -308 0zm578 1129l384 -886 383 886 19 41 150 0 -41 -96 -448 -1033 -19 -41 -89 0 -19 41 -448 1033 -41 96 150 0 19 -41z"/>
 </g>
</svg>
