<svg width="180" height="46" viewBox="0 0 180 46" fill="none" xmlns="http://www.w3.org/2000/svg">
<path fill-rule="evenodd" clip-rule="evenodd" d="M3.37988 17.11C3.87988 17.42 4.70988 17.2 5.26988 17.08C5.64988 17 6.06988 16.97 6.44988 16.88C7.55988 16.63 8.71988 16.46 9.83988 16.09C10.1899 15.98 10.5899 15.91 10.9499 15.82L12.5899 15.38C12.7699 15.33 12.9299 15.26 13.1299 15.22C13.8699 15.04 14.5499 14.79 15.2999 14.61C15.8299 14.48 16.3699 14.26 16.8799 14.11C17.0399 14.06 17.2599 14.04 17.4399 13.97C18.0999 13.7 21.8099 12.61 22.7399 12.32L28.0499 10.68C28.8699 10.48 30.3499 9.93001 31.2499 9.72001C31.6399 9.62001 31.9199 9.52001 32.3199 9.40001L38.8299 7.58001C38.9999 7.53001 39.2399 7.51001 39.4099 7.46001L43.2799 6.47001C44.1399 6.20001 45.7699 5.89001 46.6899 5.71001C46.9099 5.67001 47.0399 5.61001 47.2399 5.56001C47.8299 5.44001 48.4699 5.41001 48.9999 5.25001C49.2999 5.16001 49.8299 5.06001 50.1499 5.00001L51.9399 4.71001C52.8199 4.48001 55.1099 4.11001 56.0799 3.99001C56.5399 3.93001 56.8599 3.86001 57.2899 3.79001C58.0699 3.67001 58.9099 3.58001 59.7099 3.44001C60.5099 3.29001 61.3699 3.24001 62.1699 3.13001C64.9699 2.75001 69.5799 2.29001 72.3799 2.24001C73.2699 2.22001 74.1199 2.14001 74.9599 2.14001L78.0899 2.10001C81.0799 2.03001 84.0899 2.32001 87.0599 2.63001C89.7399 2.90001 93.8599 3.75001 96.4699 4.48001C97.6299 4.81001 98.7799 5.31001 99.9099 5.75001C100.21 5.86001 100.45 5.99001 100.7 6.10001L103.91 7.56001C104.19 7.69001 104.45 7.82001 104.72 7.94001L110.91 11.08C111.23 11.22 111.37 11.34 111.65 11.47L117.7 14.76C118.42 15.13 119.93 16.16 120.83 16.29C121.61 16.4 124.36 16.39 125.32 16.39C125.44 16.39 125.49 16.35 125.55 16.31C124.99 15.7 119.74 12.94 119.13 12.58L117.9 11.93C117.74 11.85 117.63 11.77 117.48 11.7L115.8 10.85C115.53 10.73 115.26 10.58 114.98 10.43L109 7.48001C106.52 6.32001 104.44 5.36001 101.88 4.38001C100.44 3.83001 99.2799 3.45001 97.7999 3.00001C97.6099 2.96001 97.4599 2.90001 97.2699 2.84001C92.8299 1.53001 85.2199 0.600006 80.6699 0.600006H74.4599C72.6799 0.600006 70.9899 0.760006 69.2599 0.850006C67.6099 0.940006 65.9499 1.13001 64.3199 1.35001C63.4799 1.46001 62.6999 1.49001 61.8699 1.63001C61.0999 1.77001 60.2599 1.88001 59.4799 1.98001L57.1299 2.36001C55.6399 2.58001 53.3699 2.97001 51.9299 3.30001C51.7399 3.35001 51.5399 3.36001 51.3199 3.40001C51.1099 3.44001 51.0399 3.50001 50.7699 3.55001C50.5699 3.58001 50.4099 3.59001 50.1799 3.64001C48.6699 3.99001 47.1499 4.26001 45.6299 4.60001C45.4199 4.65001 45.3399 4.71001 45.1399 4.75001C44.4299 4.89001 43.6499 5.07001 42.9499 5.29001C42.7599 5.35001 42.5599 5.35001 42.3699 5.41001C40.2099 6.02001 38.0399 6.54001 35.8899 7.16001L30.1599 8.92001C29.9699 8.97001 29.8299 9.04001 29.6299 9.10001C29.3199 9.19001 28.9199 9.32001 28.5799 9.43001L26.5199 10.1C26.1799 10.2 25.8299 10.31 25.5099 10.43L20.3599 12.18C19.8799 12.4 18.8899 12.71 18.3299 12.88L14.2399 14.24C13.8999 14.33 13.5499 14.5 13.1999 14.59C12.8299 14.68 12.4899 14.75 12.1199 14.91L6.75988 16.34C6.22988 16.5 5.06988 16.73 4.45988 16.82C4.15988 16.87 3.50988 16.92 3.37988 17.11Z" fill="#43B9AA"/>
<path fill-rule="evenodd" clip-rule="evenodd" d="M87.8203 16.68C88.7303 16.87 93.7003 17 94.9603 17.09C95.4503 17.13 95.9403 17.18 96.4403 17.19C97.4203 17.2 98.4203 17.3 99.3703 17.31C101.29 17.34 103.31 17.48 105.19 17.59C106.09 17.64 107.12 17.64 108.05 17.7C109.03 17.76 110.03 17.8 111.03 17.82C112 17.83 113 17.91 113.91 17.94C115.72 18 118.22 18.08 119.96 18.07C120.93 18.06 121.93 18.16 122.94 18.17C123.97 18.17 124.77 18.2 125.82 18.19C126.83 18.19 127.8 18.29 128.79 18.32C129.78 18.35 130.76 18.37 131.73 18.44C133.1 18.54 136.15 18.65 137.43 18.83C139.25 19.09 141.1 19.16 142.91 19.47C144.04 19.65 146.4 19.96 147.49 20.2L150.67 20.89C151.13 20.99 151.51 21.1 151.92 21.18C153.06 21.4 156.64 22.54 157.78 22.96C159.06 23.43 160.72 24.21 161.71 25.18C161.84 25.31 161.99 25.43 162.1 25.54L163.6 27.11C163.73 27.27 163.78 27.34 163.95 27.51L165.35 29.18C165.46 29.31 165.58 29.43 165.7 29.58L167.82 32.07C168.04 32.3 168.79 33.16 169.03 33.19C169.13 32.93 168.58 32.25 168.44 32C168.24 31.63 167.9 31.17 167.67 30.83C167.28 30.26 166.93 29.69 166.47 29.15C166.32 28.98 166.21 28.76 166.07 28.56L164.38 26.43C164.22 26.2 164.12 26.11 163.97 25.9C163.56 25.32 162.71 24.68 162.98 24.15C164.06 23.89 166.04 24.63 166.99 25.16C168.33 25.91 170.07 26.9 171.26 27.78C171.46 27.93 172.14 28.37 172.34 28.41C172.34 28.3 172.33 28.34 172.27 28.27L172.22 28.21C171.52 27.45 170.35 26.63 169.46 26.07L168.53 25.45C168.36 25.35 168.24 25.3 168.06 25.19C165.8 23.77 164.45 23.23 161.87 22.24C161.14 21.95 160.36 21.75 159.61 21.48L157.24 20.77C156.15 20.49 154.84 20.07 153.64 19.8C151.12 19.22 148.64 18.67 146.08 18.24C145.17 18.08 144.32 18 143.44 17.85C142.41 17.67 138.98 17.37 137.87 17.34C136.95 17.32 135.96 17.19 135 17.19C134.49 17.18 134.06 17.12 133.56 17.12C133.28 17.12 133.1 17.08 132.86 17.06C132.6 17.04 132.34 17.07 132.08 17.05C131.24 16.97 130.03 16.96 129.14 16.96C127.14 16.96 125.12 16.89 123.09 16.9C118.37 16.91 113.18 16.81 108.3 16.81C107.31 16.81 106.26 16.84 105.28 16.81C104.34 16.77 103.25 16.82 102.3 16.75C101.4 16.69 100.18 16.71 99.2703 16.71C98.3403 16.71 97.4403 16.73 96.5903 16.67C95.6603 16.6 94.5603 16.69 93.7603 16.63C92.8503 16.55 91.6703 16.62 90.7403 16.62C90.0403 16.62 89.2703 16.58 88.5603 16.62C88.3103 16.63 88.1403 16.68 87.8203 16.68Z" fill="#43B9AA"/>
<path fill-rule="evenodd" clip-rule="evenodd" d="M6.2002 17.46C6.3702 17.61 9.0802 17.88 9.5202 17.95C9.8302 17.99 10.1102 17.99 10.3802 18.03C10.7002 18.07 10.9402 18.13 11.2502 18.16C11.5402 18.19 11.8302 18.2 12.1402 18.23C12.6902 18.29 12.6102 18.35 13.2902 18.35L17.2602 17.81C18.6402 17.68 19.9802 17.51 21.3802 17.38C24.2202 17.12 27.0902 16.9 29.9602 16.9L34.6202 16.87C35.4802 16.87 36.4702 16.97 37.3502 16.96C38.2302 16.96 44.1402 17.31 45.3902 17.44C46.2602 17.53 47.1102 17.63 47.9702 17.71C48.4002 17.75 48.8102 17.79 49.2602 17.81C49.7002 17.84 50.1002 17.92 50.5502 17.95C51.5902 18.03 57.7402 18.61 58.4202 18.1L53.1102 17.19C52.8002 17.15 52.5602 17.07 52.3202 17.04C50.2002 16.71 48.1602 16.4 46.0302 16.06C45.5402 15.98 44.9702 15.92 44.4502 15.86C43.9302 15.8 43.4102 15.71 42.8902 15.65C41.8102 15.52 37.3802 15.05 36.2602 15.04C35.1302 15.02 33.5602 14.85 32.8402 14.85H28.6202C28.0902 14.85 26.4502 15.01 25.6902 15.01C24.6502 15 23.6702 15.12 22.7102 15.16C20.7302 15.25 18.8502 15.46 16.9102 15.62C15.8102 15.7 12.6302 16.13 11.3802 16.34C11.1702 16.38 10.9602 16.4 10.7202 16.43L7.3602 17.03C7.1302 17.09 6.9502 17.16 6.7302 17.2C6.3802 17.28 6.3602 17.19 6.2002 17.46Z" fill="#43B9AA"/>
<path fill-rule="evenodd" clip-rule="evenodd" d="M36.9502 12.2C36.9502 12.59 37.2002 12.8 37.5302 13.01C38.8902 13.91 42.6002 14.28 44.3102 14.46L46.7602 14.76C47.1502 14.81 47.6102 14.81 48.0302 14.87C49.0702 15.02 50.5802 15.11 51.7502 15.21C52.9502 15.32 54.4702 15.37 55.6202 15.5C56.7702 15.64 58.1302 15.65 59.4302 15.77L63.3502 15.98C64.1902 15.99 65.1302 16.06 65.9802 16.11C66.8702 16.16 67.7202 16.17 68.6102 16.23C69.0602 16.26 69.5002 16.22 69.9602 16.26C70.3802 16.29 70.8602 16.32 71.2902 16.33C72.0202 16.35 75.8802 16.48 76.5102 16.34C76.4302 16.28 76.5202 16.31 76.3902 16.28L73.8802 16.16C72.9602 16.06 72.1902 16.02 71.2402 16.02C70.4402 16.02 69.6302 15.89 68.8102 15.86C66.9702 15.79 65.7402 15.61 63.9002 15.54C62.3702 15.49 60.6002 15.29 59.0402 15.19C58.2002 15.13 57.4102 15.03 56.5502 15L47.0802 14.03C46.6902 13.98 46.3602 13.9 45.9502 13.86C44.9402 13.75 43.5102 13.5 42.5402 13.32C41.5502 13.13 40.4302 12.91 39.5402 12.44C37.4402 11.36 47.8302 8.69002 48.1702 8.57002C48.4402 8.47002 48.9302 8.39002 49.2402 8.31002C49.9602 8.13002 51.7402 7.64002 52.3802 7.52002L55.5502 6.78002C56.7102 6.51002 58.8802 6.06002 59.9302 5.90002C61.0102 5.75002 62.2302 5.50002 63.2702 5.38002C63.7202 5.33002 64.0402 5.31002 64.4602 5.23002L67.9602 4.80002C68.3802 4.78002 68.8102 4.76002 69.1902 4.69002C70.1102 4.54002 72.2102 4.45002 73.4002 4.34002C73.6202 4.32002 73.8402 4.34002 74.0702 4.31002C74.8902 4.23002 75.7202 4.22002 76.5502 4.16002C76.9502 4.12002 77.4002 4.13002 77.7902 4.11002C78.2302 4.08002 78.6602 4.07002 79.1002 4.07002L78.9402 4.01002C77.8502 3.73002 74.0002 3.86002 72.6702 3.94002C70.9502 4.05002 68.7802 4.02002 67.1002 4.25002C66.2502 4.37002 65.3102 4.44002 64.4502 4.52002C63.5402 4.60002 62.7202 4.73002 61.8502 4.83002C58.7202 5.21002 54.9802 5.95002 51.8702 6.58002C51.6702 6.62002 51.5102 6.67002 51.3102 6.70002C50.1802 6.90002 48.2702 7.43002 47.1302 7.69002C46.9202 7.73002 46.7802 7.76002 46.5802 7.83002C46.3602 7.91002 46.2202 7.92002 45.9902 7.98002C44.8302 8.31002 36.9502 10.48 36.9502 12.2Z" fill="#43B9AA"/>
<path fill-rule="evenodd" clip-rule="evenodd" d="M1.42012 27.53V28.08C1.42012 28.41 1.16012 29.17 1.33012 29.42C1.51012 29.21 1.61012 28.87 1.66012 28.6C1.89012 27.33 1.80012 27.39 1.66012 26.11C1.50012 24.73 1.48012 25.45 1.48012 23.91C1.48012 23.65 1.53012 23.41 1.57012 23.16C1.64012 22.79 1.57012 22.76 1.83012 22.52C2.55012 21.85 3.14012 21.56 3.83012 21.05C4.36012 20.67 4.57012 20.87 5.25012 20.92L8.40012 21.24C9.05012 21.33 9.71012 21.26 9.72012 21.68C9.73012 22.09 9.07012 22.24 8.99012 22.65C9.39012 22.67 12.4601 21.33 13.0901 21.03C13.3301 20.9 13.6701 20.8 13.8701 20.67C14.0501 20.56 15.3501 19.97 15.5201 19.97C16.3401 19.97 16.3901 20.07 17.3101 20.14C17.6401 20.16 18.9501 20.51 19.2801 20.29C19.0901 20.13 18.6901 20.18 18.4001 20.15C18.0801 20.11 18.2901 20.05 17.5201 19.98C17.3701 19.97 17.2001 19.96 17.0601 19.93C16.8901 19.9 16.8401 19.86 16.6301 19.83C16.2901 19.77 15.9701 19.77 15.6701 19.7L8.36012 18.58C7.31012 18.45 6.62012 18.28 5.59012 18.17L3.75012 17.87C3.51012 17.81 3.01012 17.67 3.13012 18.03C3.25012 18.41 3.27012 18.47 3.57012 18.64C5.00012 19.47 4.50012 19.56 2.83012 20.99C2.54012 21.24 2.63012 21.06 1.95012 21.7L1.19012 22.48C1.12012 22.59 1.02012 22.7 0.97012 22.81C0.85012 23.11 0.86012 24.47 0.89012 24.85C0.92012 25.34 0.98012 25.32 1.12012 25.71C1.18012 25.89 1.42012 27.34 1.42012 27.53Z" fill="#43B9AA"/>
<path fill-rule="evenodd" clip-rule="evenodd" d="M98.8902 22.92C98.9502 23.09 99.1002 23.05 99.5802 23.09C99.8802 23.12 100.2 23.14 100.47 23.15C101.08 23.19 101.6 23.29 102.2 23.32L112.46 24.22C112.98 24.3 113.6 24.3 114.15 24.36L117.52 24.72C118.08 24.79 118.65 24.85 119.22 24.9C120.72 25.04 122.59 25.38 124.1 25.64C124.58 25.72 124.79 25.82 124.82 25.55C124.86 25.29 124.63 24.99 124.78 24.76C124.93 24.58 128.13 24.67 128.74 24.64C129.42 24.6 131.03 24.81 131.85 24.44C131.86 24.43 132 24.35 132 24.34C132.1 24.25 132.07 24.34 132.11 24.16C131.82 23.98 128.64 23.93 128.09 23.89C127.39 23.84 126.72 23.83 126.02 23.79C125.36 23.74 124.65 23.7 123.93 23.69C122.56 23.67 121.21 23.5 119.81 23.5C118.46 23.51 117 23.35 115.65 23.31C113.71 23.25 111.25 23.09 109.34 23.09C108.72 23.09 107.91 23.07 107.26 23.02C105.86 22.94 104.47 22.92 103.04 22.9L99.0702 22.8C98.7102 22.85 98.9502 22.83 98.8902 22.92Z" fill="#43B9AA"/>
<path fill-rule="evenodd" clip-rule="evenodd" d="M169.37 28.19C169.19 28.11 168.79 27.92 168.6 28.08C168.67 28.18 168.49 28.08 168.71 28.21L172.32 29.85C172.45 29.92 172.46 29.95 172.64 30.03C173.46 30.38 175.92 31.64 176.48 32.14C176.66 32.3 176.82 32.4 176.96 32.55C177.34 32.95 177.54 33.41 177.54 33.98C177.54 34.54 176.91 36.3 176.67 36.85C176.34 37.6 176.33 37.53 177.07 37.53C178.17 37.53 179.12 35.68 179.12 34.33C179.12 33.57 179.22 33.06 178.86 32.59C177.9 31.37 174.55 30.17 173.03 29.49L169.75 28.3C169.65 28.27 169.49 28.24 169.37 28.19Z" fill="#43B9AA"/>
<path fill-rule="evenodd" clip-rule="evenodd" d="M104.31 15.15C105.01 15.2 104.14 14.03 106.04 13.75C107.76 13.5 109.78 14.07 111.37 14.69C111.89 14.89 112.49 15.19 112.91 15.53C113.13 15.72 113.08 15.82 113.17 16.12C113.34 16.13 113.77 16 113.89 15.9C114.06 15.76 114.05 15.54 113.96 15.38C113.77 15.03 113.01 14.66 112.67 14.48C110.98 13.61 108.2 13.01 106.29 13.32C105.4 13.47 104.02 13.86 104.31 15.15Z" fill="#43B9AA"/>
<path fill-rule="evenodd" clip-rule="evenodd" d="M19.9101 31.38C20.1601 31.3 20.0001 31.41 20.1301 31.11C20.2401 30.84 20.1601 31.02 20.2901 30.85L20.8001 29.99C20.8701 29.88 20.8901 29.9 20.9801 29.76L22.2101 28.29C22.9601 27.51 23.2001 27.29 24.0401 26.6C25.7801 25.17 27.8401 24.29 30.0101 23.68C32.6301 22.94 36.6801 23.13 39.2701 24.18C40.3901 24.64 41.8401 25.25 42.8101 26.01L44.2901 27.17C44.8701 27.65 45.9401 28.81 46.4101 29.46C46.6801 29.82 46.8701 30.09 47.1401 30.46C47.9901 31.66 49.0001 34.04 49.2501 35.45C49.4501 36.57 49.6401 37.32 49.6701 38.55C49.6901 39.62 49.4401 41.36 49.5401 41.84C49.6901 41.79 49.6301 41.85 49.7101 41.69C49.7201 41.66 49.7401 41.54 49.7501 41.5C49.8601 40.91 50.0101 40.61 50.0401 40.35C50.1101 39.77 50.2401 39.24 50.2901 38.68C50.4201 37.14 50.3901 34.75 49.9101 33.31C49.8201 33.05 49.7901 32.82 49.7201 32.54C49.3701 31.28 48.2601 28.91 47.4901 27.96C46.5301 26.76 46.7501 26.91 45.7101 25.87L44.9601 25.17C44.4201 24.66 43.0601 23.65 42.4301 23.35C41.1401 22.72 41.2501 22.7 39.7601 22.14C38.8401 21.8 37.7301 21.48 36.6501 21.37C33.0601 21.03 30.4601 21.4 27.3401 22.98C27.2201 23.04 27.1301 23.05 27.0001 23.11L25.7901 23.87C25.3801 24.14 25.0601 24.35 24.6701 24.67C23.7901 25.4 22.9301 26.2 22.2201 27.11L21.8001 27.65C21.2101 28.46 20.8001 29.1 20.3501 30.02C20.0901 30.57 19.7401 31.07 19.9101 31.38Z" fill="#43B9AA"/>
<path fill-rule="evenodd" clip-rule="evenodd" d="M131.9 32.33C132.16 31.94 132.52 31.23 132.88 30.81C133.5 30.08 134.17 29.34 134.91 28.71C135.05 28.58 135.21 28.44 135.36 28.33C135.79 27.99 136.43 27.44 136.82 27.28L138.42 26.43C140.1 25.63 141.69 25.32 143.73 25.1C145.38 24.93 146.76 25.25 148.24 25.52L149.49 25.88C151.7 26.79 152.53 27.24 154.23 28.61C155.53 29.65 155.99 30.41 156.97 31.66C157.46 32.29 157.83 33.22 158.16 33.82L158.86 35.62C158.93 35.91 158.94 35.98 159.03 36.23C159.16 36.57 159.21 37.22 159.31 37.62C159.65 38.98 159.27 42 159.47 42.29C159.67 42.22 159.67 41.84 159.71 41.62C159.76 41.33 159.85 41.19 159.9 40.92C160.22 39.25 160.18 37.58 159.99 35.93C159.86 34.77 159.24 32.69 158.74 31.74C157.82 29.95 157.13 28.93 155.71 27.49C154.74 26.49 153.79 25.9 152.61 25.15C152.25 24.92 151.84 24.75 151.43 24.54C151.02 24.34 150.56 24.22 150.14 24.04C148.43 23.3 145.71 23.15 143.67 23.32C141.71 23.48 139.02 24.41 137.56 25.39C137.2 25.64 136.86 25.81 136.52 26.14C136.39 26.26 135.88 26.54 135.46 26.93C135.28 27.09 135.19 27.22 135.03 27.4C134.78 27.67 134.36 27.99 134.11 28.27C133.72 28.72 133.5 29.18 133.34 29.35C132.58 30.15 132.62 30.44 132.29 30.99C132.18 31.18 132.17 31.1 132.08 31.25L131.68 32.17C131.61 32.34 131.36 32.54 131.56 32.82L131.9 32.33Z" fill="#43B9AA"/>
<path fill-rule="evenodd" clip-rule="evenodd" d="M35.2199 31.93C35.3999 31.93 35.5499 32.08 35.5499 32.26C35.5499 32.45 35.3999 32.6 35.2199 32.6C35.0299 32.6 34.8799 32.45 34.8799 32.26C34.8799 32.08 35.0299 31.93 35.2199 31.93Z" fill="#43B9AA"/>
<path fill-rule="evenodd" clip-rule="evenodd" d="M34.4301 31.2C34.6201 31.2 34.7901 31.36 34.7901 31.56C34.7901 31.76 34.6201 31.93 34.4301 31.93C34.2301 31.93 34.0601 31.76 34.0601 31.56C34.0601 31.36 34.2301 31.2 34.4301 31.2Z" fill="#43B9AA"/>
<path fill-rule="evenodd" clip-rule="evenodd" d="M33.4002 30.56C33.6502 30.56 33.8402 30.75 33.8402 30.99C33.8402 31.23 33.6502 31.43 33.4002 31.43C33.1602 31.43 32.9702 31.23 32.9702 30.99C32.9702 30.75 33.1602 30.56 33.4002 30.56Z" fill="#43B9AA"/>
<path fill-rule="evenodd" clip-rule="evenodd" d="M32.05 30.03C32.36 30.03 32.62 30.28 32.62 30.6C32.62 30.91 32.36 31.17 32.05 31.17C31.73 31.17 31.48 30.91 31.48 30.6C31.48 30.28 31.73 30.03 32.05 30.03Z" fill="#43B9AA"/>
<path fill-rule="evenodd" clip-rule="evenodd" d="M30.38 29.83C30.74 29.83 31.04 30.12 31.04 30.48C31.04 30.84 30.74 31.14 30.38 31.14C30.02 31.14 29.73 30.84 29.73 30.48C29.73 30.12 30.02 29.83 30.38 29.83Z" fill="#43B9AA"/>
<path fill-rule="evenodd" clip-rule="evenodd" d="M28.4202 30.11C28.8302 30.11 29.1602 30.44 29.1602 30.85C29.1602 31.26 28.8302 31.59 28.4202 31.59C28.0102 31.59 27.6802 31.26 27.6802 30.85C27.6802 30.44 28.0102 30.11 28.4202 30.11Z" fill="#43B9AA"/>
<path fill-rule="evenodd" clip-rule="evenodd" d="M34.6802 33.13C34.8802 33.08 35.0902 33.19 35.1502 33.4C35.2102 33.6 35.0902 33.8 34.8902 33.86C34.6902 33.92 34.4802 33.8 34.4202 33.6C34.3702 33.4 34.4802 33.19 34.6802 33.13Z" fill="#43B9AA"/>
<path fill-rule="evenodd" clip-rule="evenodd" d="M33.6003 32.53C33.8203 32.47 34.0403 32.6 34.1003 32.81C34.1603 33.03 34.0403 33.26 33.8203 33.32C33.6003 33.38 33.3803 33.25 33.3203 33.04C33.2503 32.82 33.3803 32.59 33.6003 32.53Z" fill="#43B9AA"/>
<path fill-rule="evenodd" clip-rule="evenodd" d="M32.1799 32.08C32.4499 32 32.7199 32.16 32.7899 32.42C32.8699 32.68 32.7099 32.95 32.4499 33.03C32.1899 33.1 31.9199 32.95 31.8399 32.69C31.7699 32.42 31.9199 32.15 32.1799 32.08Z" fill="#43B9AA"/>
<path fill-rule="evenodd" clip-rule="evenodd" d="M30.5102 31.87C30.8602 31.78 31.2102 31.97 31.3102 32.32C31.4102 32.66 31.2102 33.02 30.8602 33.11C30.5202 33.21 30.1602 33.01 30.0702 32.67C29.9702 32.33 30.1702 31.97 30.5102 31.87Z" fill="#43B9AA"/>
<path fill-rule="evenodd" clip-rule="evenodd" d="M28.4901 32.09C28.8801 31.98 29.2901 32.2 29.4001 32.6C29.5201 32.99 29.2901 33.4 28.8901 33.51C28.5001 33.62 28.0901 33.4 27.9801 33C27.8701 32.61 28.1001 32.2 28.4901 32.09Z" fill="#43B9AA"/>
<path fill-rule="evenodd" clip-rule="evenodd" d="M26.3502 32.96C26.7902 32.84 27.2502 33.09 27.3802 33.54C27.5002 33.98 27.2402 34.44 26.8002 34.57C26.3602 34.69 25.9002 34.44 25.7702 33.99C25.6502 33.55 25.9002 33.09 26.3502 32.96Z" fill="#43B9AA"/>
<path fill-rule="evenodd" clip-rule="evenodd" d="M34.3499 34.55C34.5699 34.43 34.8399 34.51 34.9499 34.72C35.0699 34.94 34.9899 35.21 34.7699 35.33C34.5599 35.44 34.2899 35.36 34.1699 35.15C34.0599 34.93 34.1399 34.66 34.3499 34.55Z" fill="#43B9AA"/>
<path fill-rule="evenodd" clip-rule="evenodd" d="M32.95 34.14C33.19 34.01 33.48 34.1 33.6 34.33C33.73 34.56 33.64 34.85 33.41 34.98C33.18 35.11 32.89 35.02 32.76 34.79C32.64 34.55 32.72 34.26 32.95 34.14Z" fill="#43B9AA"/>
<path fill-rule="evenodd" clip-rule="evenodd" d="M31.2198 33.98C31.4998 33.83 31.8498 33.93 31.9998 34.21C32.1598 34.49 32.0498 34.85 31.7698 35C31.4898 35.15 31.1398 35.05 30.9798 34.76C30.8298 34.48 30.9398 34.13 31.2198 33.98Z" fill="#43B9AA"/>
<path fill-rule="evenodd" clip-rule="evenodd" d="M29.25 34.17C29.62 33.97 30.08 34.11 30.28 34.48C30.48 34.85 30.34 35.3 29.98 35.5C29.61 35.7 29.15 35.57 28.95 35.2C28.75 34.83 28.89 34.37 29.25 34.17Z" fill="#43B9AA"/>
<path fill-rule="evenodd" clip-rule="evenodd" d="M26.9998 34.94C27.4198 34.71 27.9398 34.87 28.1698 35.29C28.3998 35.71 28.2398 36.24 27.8198 36.47C27.3998 36.69 26.8698 36.54 26.6498 36.12C26.4198 35.69 26.5698 35.17 26.9998 34.94Z" fill="#43B9AA"/>
<path fill-rule="evenodd" clip-rule="evenodd" d="M24.7701 36.49C25.2401 36.23 25.8401 36.41 26.1001 36.88C26.3501 37.36 26.1801 37.95 25.7001 38.21C25.2301 38.47 24.6301 38.29 24.3701 37.82C24.1201 37.34 24.2901 36.75 24.7701 36.49Z" fill="#43B9AA"/>
<path fill-rule="evenodd" clip-rule="evenodd" d="M28.6499 37.83C28.5599 37.67 28.6099 37.46 28.7699 37.37C28.9299 37.27 29.1299 37.32 29.2299 37.48C29.3199 37.64 29.2699 37.84 29.1099 37.94C28.9499 38.04 28.7499 37.98 28.6499 37.83Z" fill="#43B9AA"/>
<path fill-rule="evenodd" clip-rule="evenodd" d="M28.4398 38.88C28.3398 38.71 28.3898 38.48 28.5598 38.38C28.7398 38.28 28.9598 38.33 29.0598 38.5C29.1598 38.68 29.1098 38.9 28.9398 39C28.7698 39.1 28.5398 39.05 28.4398 38.88Z" fill="#43B9AA"/>
<path fill-rule="evenodd" clip-rule="evenodd" d="M28.42 40.08C28.29 39.88 28.36 39.61 28.56 39.49C28.77 39.36 29.04 39.43 29.16 39.63C29.29 39.84 29.22 40.11 29.01 40.23C28.81 40.36 28.54 40.29 28.42 40.08Z" fill="#43B9AA"/>
<path fill-rule="evenodd" clip-rule="evenodd" d="M28.6601 41.52C28.5001 41.25 28.5801 40.9 28.8501 40.74C29.1201 40.58 29.4701 40.66 29.6401 40.93C29.8001 41.2 29.7101 41.55 29.4401 41.72C29.1701 41.88 28.8201 41.79 28.6601 41.52Z" fill="#43B9AA"/>
<path fill-rule="evenodd" clip-rule="evenodd" d="M29.3498 43.05C29.1598 42.74 29.2598 42.34 29.5698 42.15C29.8798 41.97 30.2798 42.07 30.4698 42.38C30.6598 42.69 30.5598 43.09 30.2498 43.27C29.9398 43.46 29.5398 43.36 29.3498 43.05Z" fill="#43B9AA"/>
<path fill-rule="evenodd" clip-rule="evenodd" d="M30.6098 44.58C30.3998 44.23 30.5098 43.78 30.8598 43.57C31.2098 43.36 31.6598 43.47 31.8698 43.82C32.0798 44.17 31.9698 44.62 31.6198 44.83C31.2698 45.04 30.8198 44.93 30.6098 44.58Z" fill="#43B9AA"/>
<path fill-rule="evenodd" clip-rule="evenodd" d="M29.9599 37.66C29.8099 37.52 29.7999 37.28 29.9499 37.13C30.0899 36.97 30.3299 36.97 30.4799 37.11C30.6299 37.25 30.6399 37.49 30.4999 37.64C30.3499 37.79 30.1199 37.8 29.9599 37.66Z" fill="#43B9AA"/>
<path fill-rule="evenodd" clip-rule="evenodd" d="M30.01 38.9C29.84 38.75 29.83 38.49 29.99 38.32C30.14 38.16 30.4 38.15 30.57 38.3C30.73 38.46 30.74 38.72 30.59 38.88C30.43 39.05 30.17 39.05 30.01 38.9Z" fill="#43B9AA"/>
<path fill-rule="evenodd" clip-rule="evenodd" d="M30.3498 40.35C30.1498 40.16 30.1398 39.85 30.3298 39.65C30.5098 39.45 30.8198 39.44 31.0198 39.63C31.2198 39.81 31.2298 40.13 31.0498 40.32C30.8598 40.52 30.5498 40.53 30.3498 40.35Z" fill="#43B9AA"/>
<path fill-rule="evenodd" clip-rule="evenodd" d="M31.0299 41.88C30.7699 41.64 30.7599 41.23 30.9999 40.97C31.2499 40.71 31.6599 40.7 31.9199 40.94C32.1799 41.19 32.1899 41.59 31.9499 41.85C31.6999 42.11 31.2899 42.13 31.0299 41.88Z" fill="#43B9AA"/>
<path fill-rule="evenodd" clip-rule="evenodd" d="M32.2601 43.51C31.9601 43.23 31.9501 42.76 32.2301 42.46C32.5101 42.16 32.9801 42.15 33.2701 42.43C33.5701 42.71 33.5901 43.17 33.3101 43.47C33.0301 43.77 32.5601 43.79 32.2601 43.51Z" fill="#43B9AA"/>
<path fill-rule="evenodd" clip-rule="evenodd" d="M34.1201 44.89C33.7801 44.58 33.7601 44.05 34.0801 43.71C34.3901 43.37 34.9201 43.36 35.2601 43.67C35.5901 43.99 35.6101 44.52 35.3001 44.85C34.9801 45.19 34.4501 45.21 34.1201 44.89Z" fill="#43B9AA"/>
<path fill-rule="evenodd" clip-rule="evenodd" d="M31.3401 37.22C31.1301 37.09 31.0601 36.82 31.1901 36.61C31.3101 36.4 31.5801 36.33 31.7901 36.45C32.0001 36.58 32.0701 36.85 31.9501 37.06C31.8301 37.27 31.5501 37.34 31.3401 37.22Z" fill="#43B9AA"/>
<path fill-rule="evenodd" clip-rule="evenodd" d="M31.7099 38.62C31.4799 38.49 31.4099 38.2 31.5399 37.97C31.6799 37.74 31.9699 37.66 32.1999 37.8C32.4299 37.93 32.4999 38.23 32.3699 38.45C32.2399 38.68 31.9399 38.76 31.7099 38.62Z" fill="#43B9AA"/>
<path fill-rule="evenodd" clip-rule="evenodd" d="M32.4702 40.19C32.2002 40.03 32.1102 39.67 32.2702 39.4C32.4302 39.12 32.7902 39.03 33.0602 39.19C33.3402 39.36 33.4302 39.71 33.2702 39.99C33.1102 40.26 32.7502 40.35 32.4702 40.19Z" fill="#43B9AA"/>
<path fill-rule="evenodd" clip-rule="evenodd" d="M33.6502 41.77C33.2902 41.56 33.1702 41.1 33.3902 40.74C33.6002 40.38 34.0602 40.26 34.4202 40.47C34.7802 40.68 34.9002 41.15 34.6902 41.51C34.4802 41.87 34.0102 41.99 33.6502 41.77Z" fill="#43B9AA"/>
<path fill-rule="evenodd" clip-rule="evenodd" d="M35.4699 43.31C35.0599 43.07 34.9199 42.54 35.1699 42.13C35.4099 41.71 35.9399 41.57 36.3599 41.82C36.7699 42.06 36.9099 42.59 36.6599 43.01C36.4199 43.42 35.8899 43.56 35.4699 43.31Z" fill="#43B9AA"/>
<path fill-rule="evenodd" clip-rule="evenodd" d="M37.9502 44.42C37.4902 44.15 37.3302 43.55 37.6102 43.08C37.8802 42.62 38.4802 42.46 38.9502 42.74C39.4102 43.01 39.5702 43.61 39.2902 44.08C39.0202 44.54 38.4202 44.7 37.9502 44.42Z" fill="#43B9AA"/>
<path fill-rule="evenodd" clip-rule="evenodd" d="M36.9301 40.54C36.8301 40.7 36.6301 40.75 36.4701 40.66C36.3101 40.56 36.2601 40.36 36.3501 40.2C36.4401 40.04 36.6501 39.99 36.8101 40.08C36.9701 40.17 37.0201 40.38 36.9301 40.54Z" fill="#43B9AA"/>
<path fill-rule="evenodd" clip-rule="evenodd" d="M37.9503 40.22C37.8503 40.39 37.6303 40.45 37.4603 40.35C37.2903 40.25 37.2303 40.03 37.3303 39.86C37.4303 39.68 37.6503 39.63 37.8203 39.73C38.0003 39.83 38.0503 40.05 37.9503 40.22Z" fill="#43B9AA"/>
<path fill-rule="evenodd" clip-rule="evenodd" d="M39.0199 39.67C38.8999 39.87 38.6399 39.94 38.4299 39.82C38.2199 39.7 38.1499 39.43 38.2699 39.23C38.3899 39.02 38.6599 38.95 38.8699 39.07C39.0799 39.19 39.1499 39.46 39.0199 39.67Z" fill="#43B9AA"/>
<path fill-rule="evenodd" clip-rule="evenodd" d="M40.1701 38.77C40.0101 39.04 39.6601 39.13 39.3901 38.97C39.1201 38.81 39.0301 38.46 39.1901 38.19C39.3501 37.92 39.6901 37.83 39.9701 37.99C40.2401 38.14 40.3301 38.49 40.1701 38.77Z" fill="#43B9AA"/>
<path fill-rule="evenodd" clip-rule="evenodd" d="M41.18 37.43C41 37.74 40.6 37.84 40.29 37.66C39.98 37.48 39.87 37.08 40.06 36.77C40.24 36.45 40.64 36.35 40.95 36.53C41.26 36.72 41.37 37.12 41.18 37.43Z" fill="#43B9AA"/>
<path fill-rule="evenodd" clip-rule="evenodd" d="M41.9303 35.59C41.7203 35.94 41.2703 36.06 40.9203 35.85C40.5703 35.65 40.4503 35.2 40.6603 34.85C40.8603 34.49 41.3103 34.38 41.6603 34.58C42.0203 34.79 42.1303 35.24 41.9303 35.59Z" fill="#43B9AA"/>
<path fill-rule="evenodd" clip-rule="evenodd" d="M36.15 39.47C36.1 39.67 35.9 39.79 35.69 39.74C35.49 39.68 35.37 39.48 35.42 39.28C35.48 39.07 35.68 38.95 35.88 39.01C36.09 39.06 36.21 39.26 36.15 39.47Z" fill="#43B9AA"/>
<path fill-rule="evenodd" clip-rule="evenodd" d="M37.22 38.83C37.17 39.05 36.94 39.18 36.72 39.13C36.51 39.07 36.37 38.85 36.43 38.63C36.49 38.41 36.71 38.28 36.93 38.34C37.15 38.39 37.28 38.62 37.22 38.83Z" fill="#43B9AA"/>
<path fill-rule="evenodd" clip-rule="evenodd" d="M38.3302 37.84C38.2602 38.11 37.9902 38.27 37.7302 38.2C37.4702 38.13 37.3102 37.86 37.3802 37.59C37.4402 37.33 37.7102 37.17 37.9802 37.24C38.2402 37.31 38.4002 37.58 38.3302 37.84Z" fill="#43B9AA"/>
<path fill-rule="evenodd" clip-rule="evenodd" d="M39.3499 36.51C39.2599 36.85 38.9099 37.06 38.5699 36.97C38.2199 36.88 38.0099 36.53 38.0999 36.18C38.1899 35.84 38.5499 35.63 38.8899 35.72C39.2399 35.81 39.4399 36.16 39.3499 36.51Z" fill="#43B9AA"/>
<path fill-rule="evenodd" clip-rule="evenodd" d="M40.1901 34.65C40.0901 35.05 39.6801 35.29 39.2901 35.18C38.8901 35.08 38.6501 34.68 38.7601 34.28C38.8601 33.88 39.2701 33.65 39.6601 33.75C40.0601 33.85 40.2901 34.26 40.1901 34.65Z" fill="#43B9AA"/>
<path fill-rule="evenodd" clip-rule="evenodd" d="M40.5199 32.36C40.3999 32.81 39.9499 33.08 39.4999 32.96C39.0599 32.84 38.7899 32.39 38.9099 31.94C39.0199 31.5 39.4799 31.23 39.9199 31.34C40.3699 31.46 40.6399 31.92 40.5199 32.36Z" fill="#43B9AA"/>
<path fill-rule="evenodd" clip-rule="evenodd" d="M35.1101 38.47C35.1001 38.71 34.8901 38.9 34.6501 38.89C34.4001 38.89 34.2101 38.68 34.2201 38.44C34.2301 38.19 34.4301 38 34.6801 38.01C34.9201 38.02 35.1101 38.22 35.1101 38.47Z" fill="#43B9AA"/>
<path fill-rule="evenodd" clip-rule="evenodd" d="M36.1703 37.47C36.1603 37.73 35.9303 37.94 35.6703 37.93C35.4103 37.92 35.2003 37.7 35.2103 37.44C35.2203 37.17 35.4403 36.96 35.7003 36.97C35.9703 36.98 36.1703 37.2 36.1703 37.47Z" fill="#43B9AA"/>
<path fill-rule="evenodd" clip-rule="evenodd" d="M37.1803 36.05C37.1703 36.37 36.9003 36.62 36.5803 36.61C36.2603 36.6 36.0103 36.33 36.0203 36.01C36.0303 35.69 36.3003 35.44 36.6203 35.45C36.9403 35.46 37.1903 35.73 37.1803 36.05Z" fill="#43B9AA"/>
<path fill-rule="evenodd" clip-rule="evenodd" d="M38 34.26C37.99 34.68 37.64 35 37.22 34.99C36.81 34.97 36.48 34.62 36.49 34.21C36.51 33.79 36.86 33.46 37.27 33.48C37.69 33.49 38.02 33.84 38 34.26Z" fill="#43B9AA"/>
<path fill-rule="evenodd" clip-rule="evenodd" d="M38.4902 31.92C38.4702 32.4 38.0702 32.78 37.5902 32.76C37.1102 32.74 36.7402 32.34 36.7502 31.86C36.7702 31.38 37.1702 31.01 37.6502 31.02C38.1302 31.04 38.5002 31.44 38.4902 31.92Z" fill="#43B9AA"/>
<path fill-rule="evenodd" clip-rule="evenodd" d="M38.28 29.22C38.26 29.76 37.8 30.18 37.26 30.16C36.72 30.14 36.3 29.69 36.32 29.15C36.34 28.61 36.79 28.19 37.33 28.21C37.87 28.22 38.29 28.68 38.28 29.22Z" fill="#43B9AA"/>
<path fill-rule="evenodd" clip-rule="evenodd" d="M146.64 32.21C146.82 32.21 146.97 32.36 146.97 32.55C146.97 32.73 146.82 32.88 146.64 32.88C146.45 32.88 146.3 32.73 146.3 32.55C146.3 32.36 146.45 32.21 146.64 32.21Z" fill="#43B9AA"/>
<path fill-rule="evenodd" clip-rule="evenodd" d="M145.85 31.49C146.05 31.49 146.21 31.65 146.21 31.85C146.21 32.05 146.05 32.21 145.85 32.21C145.65 32.21 145.49 32.05 145.49 31.85C145.49 31.65 145.65 31.49 145.85 31.49Z" fill="#43B9AA"/>
<path fill-rule="evenodd" clip-rule="evenodd" d="M144.83 30.84C145.07 30.84 145.26 31.04 145.26 31.28C145.26 31.52 145.07 31.72 144.83 31.72C144.59 31.72 144.39 31.52 144.39 31.28C144.39 31.04 144.59 30.84 144.83 30.84Z" fill="#43B9AA"/>
<path fill-rule="evenodd" clip-rule="evenodd" d="M143.47 30.31C143.79 30.31 144.04 30.57 144.04 30.88C144.04 31.2 143.79 31.45 143.47 31.45C143.16 31.45 142.9 31.2 142.9 30.88C142.9 30.57 143.16 30.31 143.47 30.31Z" fill="#43B9AA"/>
<path fill-rule="evenodd" clip-rule="evenodd" d="M141.8 30.11C142.17 30.11 142.46 30.41 142.46 30.77C142.46 31.13 142.17 31.42 141.8 31.42C141.44 31.42 141.15 31.13 141.15 30.77C141.15 30.41 141.44 30.11 141.8 30.11Z" fill="#43B9AA"/>
<path fill-rule="evenodd" clip-rule="evenodd" d="M139.84 30.4C140.25 30.4 140.58 30.73 140.58 31.14C140.58 31.55 140.25 31.88 139.84 31.88C139.44 31.88 139.11 31.55 139.11 31.14C139.11 30.73 139.44 30.4 139.84 30.4Z" fill="#43B9AA"/>
<path fill-rule="evenodd" clip-rule="evenodd" d="M146.11 33.42C146.31 33.36 146.52 33.48 146.57 33.68C146.63 33.88 146.51 34.09 146.31 34.15C146.11 34.21 145.9 34.09 145.85 33.89C145.79 33.69 145.91 33.48 146.11 33.42Z" fill="#43B9AA"/>
<path fill-rule="evenodd" clip-rule="evenodd" d="M145.02 32.82C145.24 32.76 145.46 32.88 145.53 33.1C145.59 33.32 145.46 33.54 145.24 33.61C145.03 33.67 144.8 33.54 144.74 33.32C144.68 33.11 144.8 32.88 145.02 32.82Z" fill="#43B9AA"/>
<path fill-rule="evenodd" clip-rule="evenodd" d="M143.61 32.36C143.87 32.29 144.14 32.44 144.21 32.71C144.29 32.97 144.14 33.24 143.87 33.31C143.61 33.39 143.34 33.24 143.26 32.97C143.19 32.71 143.34 32.44 143.61 32.36Z" fill="#43B9AA"/>
<path fill-rule="evenodd" clip-rule="evenodd" d="M141.94 32.16C142.28 32.06 142.63 32.26 142.73 32.6C142.83 32.95 142.63 33.3 142.29 33.4C141.94 33.5 141.59 33.3 141.49 32.96C141.39 32.61 141.59 32.26 141.94 32.16Z" fill="#43B9AA"/>
<path fill-rule="evenodd" clip-rule="evenodd" d="M139.91 32.37C140.31 32.26 140.72 32.49 140.83 32.89C140.94 33.28 140.71 33.69 140.32 33.8C139.92 33.91 139.51 33.68 139.4 33.29C139.29 32.89 139.52 32.49 139.91 32.37Z" fill="#43B9AA"/>
<path fill-rule="evenodd" clip-rule="evenodd" d="M137.77 33.25C138.21 33.12 138.67 33.38 138.8 33.82C138.92 34.27 138.67 34.73 138.22 34.85C137.78 34.98 137.32 34.72 137.19 34.28C137.07 33.83 137.33 33.37 137.77 33.25Z" fill="#43B9AA"/>
<path fill-rule="evenodd" clip-rule="evenodd" d="M145.77 34.83C145.99 34.72 146.26 34.8 146.37 35.01C146.49 35.23 146.41 35.5 146.2 35.61C145.98 35.73 145.71 35.65 145.6 35.43C145.48 35.22 145.56 34.95 145.77 34.83Z" fill="#43B9AA"/>
<path fill-rule="evenodd" clip-rule="evenodd" d="M144.38 34.42C144.61 34.3 144.9 34.38 145.03 34.62C145.15 34.85 145.07 35.14 144.83 35.27C144.6 35.39 144.31 35.31 144.18 35.07C144.06 34.84 144.14 34.55 144.38 34.42Z" fill="#43B9AA"/>
<path fill-rule="evenodd" clip-rule="evenodd" d="M142.64 34.27C142.92 34.11 143.27 34.22 143.43 34.5C143.58 34.78 143.47 35.13 143.19 35.28C142.91 35.44 142.56 35.33 142.41 35.05C142.26 34.77 142.36 34.42 142.64 34.27Z" fill="#43B9AA"/>
<path fill-rule="evenodd" clip-rule="evenodd" d="M140.68 34.46C141.04 34.26 141.5 34.4 141.7 34.76C141.9 35.13 141.77 35.59 141.4 35.79C141.03 35.99 140.57 35.85 140.37 35.49C140.17 35.12 140.31 34.66 140.68 34.46Z" fill="#43B9AA"/>
<path fill-rule="evenodd" clip-rule="evenodd" d="M138.42 35.23C138.84 35 139.37 35.15 139.6 35.58C139.82 36 139.67 36.52 139.25 36.75C138.82 36.98 138.3 36.82 138.07 36.4C137.84 35.98 138 35.45 138.42 35.23Z" fill="#43B9AA"/>
<path fill-rule="evenodd" clip-rule="evenodd" d="M136.19 36.78C136.67 36.52 137.26 36.7 137.52 37.17C137.78 37.65 137.6 38.24 137.12 38.5C136.65 38.75 136.05 38.58 135.8 38.1C135.54 37.63 135.72 37.03 136.19 36.78Z" fill="#43B9AA"/>
<path fill-rule="evenodd" clip-rule="evenodd" d="M140.08 38.11C139.98 37.95 140.03 37.75 140.19 37.65C140.35 37.56 140.55 37.61 140.65 37.77C140.74 37.93 140.69 38.13 140.54 38.23C140.38 38.32 140.17 38.27 140.08 38.11Z" fill="#43B9AA"/>
<path fill-rule="evenodd" clip-rule="evenodd" d="M139.86 39.16C139.76 38.99 139.82 38.77 139.99 38.67C140.16 38.57 140.38 38.62 140.48 38.79C140.59 38.96 140.53 39.18 140.36 39.29C140.19 39.39 139.97 39.34 139.86 39.16Z" fill="#43B9AA"/>
<path fill-rule="evenodd" clip-rule="evenodd" d="M139.84 40.37C139.71 40.16 139.78 39.9 139.99 39.77C140.19 39.65 140.46 39.71 140.59 39.92C140.71 40.13 140.64 40.4 140.44 40.52C140.23 40.64 139.96 40.58 139.84 40.37Z" fill="#43B9AA"/>
<path fill-rule="evenodd" clip-rule="evenodd" d="M140.08 41.81C139.92 41.54 140.01 41.19 140.28 41.03C140.55 40.86 140.9 40.95 141.06 41.22C141.22 41.49 141.13 41.84 140.87 42C140.6 42.16 140.25 42.08 140.08 41.81Z" fill="#43B9AA"/>
<path fill-rule="evenodd" clip-rule="evenodd" d="M140.77 43.34C140.59 43.03 140.69 42.63 140.99 42.44C141.3 42.25 141.71 42.35 141.89 42.66C142.08 42.97 141.98 43.38 141.67 43.56C141.36 43.75 140.96 43.65 140.77 43.34Z" fill="#43B9AA"/>
<path fill-rule="evenodd" clip-rule="evenodd" d="M142.03 44.87C141.82 44.52 141.93 44.07 142.28 43.86C142.63 43.65 143.08 43.76 143.29 44.11C143.5 44.46 143.39 44.91 143.04 45.12C142.69 45.33 142.24 45.22 142.03 44.87Z" fill="#43B9AA"/>
<path fill-rule="evenodd" clip-rule="evenodd" d="M141.39 37.95C141.23 37.8 141.23 37.56 141.37 37.41C141.51 37.26 141.75 37.25 141.9 37.39C142.05 37.54 142.06 37.78 141.92 37.93C141.78 38.08 141.54 38.09 141.39 37.95Z" fill="#43B9AA"/>
<path fill-rule="evenodd" clip-rule="evenodd" d="M141.43 39.19C141.26 39.03 141.26 38.77 141.41 38.61C141.57 38.44 141.82 38.44 141.99 38.59C142.15 38.74 142.16 39 142.01 39.17C141.85 39.33 141.59 39.34 141.43 39.19Z" fill="#43B9AA"/>
<path fill-rule="evenodd" clip-rule="evenodd" d="M141.77 40.63C141.57 40.45 141.56 40.13 141.75 39.94C141.93 39.74 142.25 39.73 142.45 39.91C142.65 40.1 142.66 40.41 142.47 40.61C142.28 40.81 141.97 40.82 141.77 40.63Z" fill="#43B9AA"/>
<path fill-rule="evenodd" clip-rule="evenodd" d="M142.46 42.17C142.2 41.93 142.18 41.52 142.43 41.26C142.67 41 143.08 40.99 143.34 41.23C143.6 41.47 143.61 41.88 143.37 42.14C143.12 42.4 142.72 42.41 142.46 42.17Z" fill="#43B9AA"/>
<path fill-rule="evenodd" clip-rule="evenodd" d="M143.68 43.79C143.39 43.51 143.37 43.04 143.65 42.75C143.93 42.45 144.4 42.43 144.7 42.71C145 42.99 145.01 43.46 144.73 43.76C144.45 44.06 143.98 44.07 143.68 43.79Z" fill="#43B9AA"/>
<path fill-rule="evenodd" clip-rule="evenodd" d="M145.54 45.18C145.2 44.86 145.19 44.33 145.5 44C145.82 43.66 146.34 43.64 146.68 43.96C147.02 44.27 147.03 44.8 146.72 45.14C146.4 45.48 145.88 45.49 145.54 45.18Z" fill="#43B9AA"/>
<path fill-rule="evenodd" clip-rule="evenodd" d="M142.77 37.5C142.56 37.38 142.49 37.11 142.61 36.9C142.73 36.69 143.01 36.62 143.22 36.74C143.43 36.86 143.5 37.14 143.37 37.35C143.25 37.56 142.98 37.63 142.77 37.5Z" fill="#43B9AA"/>
<path fill-rule="evenodd" clip-rule="evenodd" d="M143.14 38.91C142.91 38.78 142.83 38.48 142.97 38.25C143.1 38.03 143.39 37.95 143.62 38.08C143.85 38.22 143.93 38.51 143.79 38.74C143.66 38.97 143.36 39.05 143.14 38.91Z" fill="#43B9AA"/>
<path fill-rule="evenodd" clip-rule="evenodd" d="M143.9 40.48C143.62 40.32 143.53 39.96 143.69 39.69C143.85 39.41 144.21 39.32 144.49 39.48C144.76 39.64 144.85 40 144.69 40.27C144.53 40.55 144.17 40.64 143.9 40.48Z" fill="#43B9AA"/>
<path fill-rule="evenodd" clip-rule="evenodd" d="M145.08 42.06C144.72 41.85 144.6 41.38 144.81 41.02C145.02 40.66 145.48 40.55 145.84 40.76C146.2 40.97 146.32 41.43 146.11 41.79C145.9 42.15 145.44 42.27 145.08 42.06Z" fill="#43B9AA"/>
<path fill-rule="evenodd" clip-rule="evenodd" d="M146.9 43.6C146.48 43.36 146.35 42.83 146.59 42.41C146.83 42 147.37 41.86 147.78 42.1C148.19 42.35 148.33 42.88 148.09 43.29C147.84 43.71 147.31 43.84 146.9 43.6Z" fill="#43B9AA"/>
<path fill-rule="evenodd" clip-rule="evenodd" d="M149.37 44.71C148.91 44.43 148.75 43.83 149.03 43.37C149.3 42.9 149.9 42.75 150.37 43.02C150.83 43.3 150.99 43.9 150.71 44.36C150.44 44.83 149.84 44.98 149.37 44.71Z" fill="#43B9AA"/>
<path fill-rule="evenodd" clip-rule="evenodd" d="M148.35 40.82C148.26 40.98 148.05 41.04 147.89 40.94C147.73 40.85 147.68 40.64 147.77 40.49C147.87 40.33 148.07 40.27 148.23 40.37C148.39 40.46 148.44 40.66 148.35 40.82Z" fill="#43B9AA"/>
<path fill-rule="evenodd" clip-rule="evenodd" d="M149.37 40.51C149.27 40.68 149.05 40.74 148.88 40.64C148.71 40.54 148.65 40.31 148.75 40.14C148.85 39.97 149.07 39.91 149.25 40.01C149.42 40.11 149.48 40.34 149.37 40.51Z" fill="#43B9AA"/>
<path fill-rule="evenodd" clip-rule="evenodd" d="M150.45 39.95C150.33 40.16 150.06 40.23 149.85 40.11C149.64 39.99 149.57 39.72 149.69 39.51C149.82 39.3 150.08 39.23 150.29 39.36C150.5 39.48 150.57 39.75 150.45 39.95Z" fill="#43B9AA"/>
<path fill-rule="evenodd" clip-rule="evenodd" d="M151.59 39.05C151.43 39.32 151.08 39.41 150.81 39.26C150.54 39.1 150.45 38.75 150.61 38.48C150.77 38.2 151.12 38.11 151.39 38.27C151.66 38.43 151.75 38.78 151.59 39.05Z" fill="#43B9AA"/>
<path fill-rule="evenodd" clip-rule="evenodd" d="M152.61 37.72C152.42 38.03 152.02 38.13 151.71 37.95C151.4 37.77 151.3 37.36 151.48 37.05C151.66 36.74 152.06 36.64 152.37 36.82C152.69 37 152.79 37.4 152.61 37.72Z" fill="#43B9AA"/>
<path fill-rule="evenodd" clip-rule="evenodd" d="M153.35 35.88C153.14 36.23 152.69 36.35 152.34 36.14C151.99 35.94 151.87 35.48 152.08 35.13C152.28 34.78 152.74 34.66 153.09 34.87C153.44 35.08 153.56 35.53 153.35 35.88Z" fill="#43B9AA"/>
<path fill-rule="evenodd" clip-rule="evenodd" d="M147.58 39.75C147.52 39.96 147.32 40.08 147.12 40.02C146.91 39.97 146.79 39.76 146.85 39.56C146.9 39.36 147.1 39.24 147.31 39.29C147.51 39.35 147.63 39.55 147.58 39.75Z" fill="#43B9AA"/>
<path fill-rule="evenodd" clip-rule="evenodd" d="M148.65 39.12C148.59 39.34 148.37 39.47 148.15 39.41C147.93 39.36 147.8 39.13 147.85 38.92C147.91 38.7 148.13 38.57 148.35 38.62C148.57 38.68 148.7 38.9 148.65 39.12Z" fill="#43B9AA"/>
<path fill-rule="evenodd" clip-rule="evenodd" d="M149.75 38.13C149.69 38.39 149.42 38.55 149.15 38.48C148.89 38.41 148.73 38.15 148.8 37.88C148.87 37.62 149.14 37.46 149.4 37.53C149.66 37.6 149.82 37.87 149.75 38.13Z" fill="#43B9AA"/>
<path fill-rule="evenodd" clip-rule="evenodd" d="M150.78 36.79C150.69 37.14 150.33 37.34 149.99 37.26C149.64 37.17 149.44 36.81 149.53 36.47C149.62 36.12 149.97 35.92 150.31 36.01C150.66 36.1 150.87 36.45 150.78 36.79Z" fill="#43B9AA"/>
<path fill-rule="evenodd" clip-rule="evenodd" d="M151.61 34.94C151.51 35.34 151.11 35.57 150.71 35.47C150.31 35.37 150.08 34.96 150.18 34.57C150.28 34.17 150.69 33.93 151.08 34.04C151.48 34.14 151.72 34.54 151.61 34.94Z" fill="#43B9AA"/>
<path fill-rule="evenodd" clip-rule="evenodd" d="M151.94 32.65C151.83 33.09 151.37 33.36 150.93 33.25C150.48 33.13 150.21 32.67 150.33 32.23C150.44 31.78 150.9 31.51 151.35 31.63C151.79 31.75 152.06 32.2 151.94 32.65Z" fill="#43B9AA"/>
<path fill-rule="evenodd" clip-rule="evenodd" d="M146.53 38.75C146.52 39 146.31 39.19 146.07 39.18C145.83 39.17 145.63 38.97 145.64 38.72C145.65 38.48 145.86 38.29 146.1 38.29C146.34 38.3 146.54 38.51 146.53 38.75Z" fill="#43B9AA"/>
<path fill-rule="evenodd" clip-rule="evenodd" d="M147.59 37.76C147.58 38.02 147.36 38.23 147.09 38.22C146.83 38.21 146.62 37.99 146.63 37.72C146.64 37.46 146.86 37.25 147.13 37.26C147.39 37.27 147.6 37.49 147.59 37.76Z" fill="#43B9AA"/>
<path fill-rule="evenodd" clip-rule="evenodd" d="M148.6 36.34C148.59 36.66 148.32 36.91 148 36.9C147.68 36.88 147.43 36.62 147.44 36.3C147.45 35.98 147.72 35.73 148.04 35.74C148.36 35.75 148.61 36.02 148.6 36.34Z" fill="#43B9AA"/>
<path fill-rule="evenodd" clip-rule="evenodd" d="M149.43 34.54C149.41 34.96 149.06 35.29 148.65 35.28C148.23 35.26 147.9 34.91 147.92 34.49C147.93 34.08 148.28 33.75 148.7 33.76C149.11 33.78 149.44 34.13 149.43 34.54Z" fill="#43B9AA"/>
<path fill-rule="evenodd" clip-rule="evenodd" d="M149.91 32.21C149.89 32.69 149.49 33.06 149.01 33.05C148.53 33.03 148.16 32.63 148.17 32.15C148.19 31.67 148.59 31.3 149.07 31.31C149.55 31.33 149.93 31.73 149.91 32.21Z" fill="#43B9AA"/>
<path fill-rule="evenodd" clip-rule="evenodd" d="M149.7 29.5C149.68 30.04 149.23 30.47 148.69 30.45C148.15 30.43 147.72 29.98 147.74 29.44C147.76 28.9 148.21 28.47 148.75 28.49C149.29 28.51 149.72 28.96 149.7 29.5Z" fill="#43B9AA"/>
<path d="M66.4098 38.68C66.0498 39.33 65.4498 39.83 64.6198 40.17C64.1498 40.37 63.6798 40.47 63.2098 40.47C62.0998 40.47 61.1698 39.98 60.4198 39C59.7698 38.13 59.4398 37.13 59.4398 35.99C59.4398 34.67 59.8598 33.56 60.6798 32.67C61.4098 31.91 62.2498 31.53 63.2098 31.52C64.1498 31.52 64.9898 31.84 65.7298 32.48C66.0098 32.74 66.2198 33.01 66.3598 33.29L67.5998 32.67C67.1898 31.87 66.4898 31.21 65.4998 30.71C64.7398 30.33 63.9798 30.14 63.2098 30.14C61.8398 30.14 60.6498 30.68 59.6698 31.76C58.5998 32.9 58.0698 34.32 58.0698 35.99C58.0698 37.66 58.5898 39.06 59.6498 40.21C60.6498 41.29 61.8398 41.83 63.2098 41.84C64.4498 41.84 65.5898 41.41 66.6198 40.54C67.0498 40.17 67.3798 39.78 67.6198 39.36L66.4098 38.68ZM70.0598 41.43L73.8998 32.57L77.7398 41.43L77.9298 41.84H79.4298L79.0098 40.88L74.5398 30.55L74.3498 30.14H73.4498L73.2598 30.55L68.7898 40.88L68.3798 41.84H69.8698L70.0598 41.43ZM87.6898 36.39C88.5898 36 89.2098 35.37 89.5298 34.51C89.6698 34.16 89.7398 33.79 89.7398 33.43C89.7398 32.44 89.3298 31.62 88.5298 30.97C87.8598 30.41 87.0798 30.14 86.1898 30.14L81.8398 30.16H81.1498V30.85L81.1298 35.99V36.68V41.15V41.84H82.5098V41.15V36.68H85.9698C86.5298 37.1 86.9898 37.7 87.3598 38.47C87.6698 39.14 88.0098 40.09 88.3898 41.34L88.5298 41.84H89.9798L89.6998 40.97C89.0198 38.69 88.3498 37.17 87.6898 36.39ZM84.0198 35.32H82.5098V31.52H86.1898C86.9598 31.52 87.5598 31.79 87.9798 32.34C88.2298 32.68 88.3598 33.04 88.3598 33.43C88.3598 34.1 88.0398 34.63 87.3898 34.99C87.0298 35.2 86.6298 35.3 86.2098 35.3H83.9998L84.0198 35.32ZM92.2498 30.83V41.15V41.84H93.6198V41.15V30.83V30.14H92.2498V30.83ZM95.9298 35.99C95.9298 37.66 96.4598 39.06 97.5098 40.21C98.5198 41.29 99.7198 41.83 101.09 41.84C102.47 41.84 103.66 41.3 104.66 40.23C105.72 39.07 106.26 37.66 106.26 35.99C106.26 34.33 105.73 32.92 104.67 31.77C103.66 30.7 102.47 30.15 101.09 30.14C99.7198 30.14 98.5298 30.68 97.5298 31.76C96.4598 32.92 95.9298 34.33 95.9298 35.99ZM97.3098 35.99C97.3098 34.67 97.7298 33.56 98.5598 32.67C99.2898 31.91 100.13 31.53 101.09 31.52C102.21 31.52 103.14 32 103.88 32.96C104.55 33.83 104.88 34.84 104.88 35.99C104.88 37.31 104.46 38.42 103.62 39.31C102.9 40.07 102.06 40.45 101.09 40.47C99.9798 40.47 99.0498 39.98 98.3098 39.02C97.6398 38.15 97.3098 37.14 97.3098 35.99ZM112.82 30.14H111.44H108.32H107.63V31.52H108.32H111.44V41.15V41.84H112.82V41.15V31.52H115.9H116.58V30.14H115.9H112.82ZM118.6 41.43L122.44 32.57L126.27 41.43L126.46 41.84H127.96L127.55 40.88L123.07 30.55L122.88 30.14H121.99L121.8 30.55L117.32 40.88L116.91 41.84H118.41L118.6 41.43Z" fill="#43B9AA"/>
</svg>
