<svg width="31" height="24" viewBox="0 0 31 24" fill="none" xmlns="http://www.w3.org/2000/svg">
<path fill-rule="evenodd" clip-rule="evenodd" d="M0.0455739 10.1837C0.299747 10.1032 0.137076 10.2139 0.269247 9.91216C0.381083 9.64062 0.299747 9.82164 0.431918 9.65067L0.950432 8.78577C1.0216 8.67515 1.04193 8.69526 1.13344 8.55446L2.38397 7.07609C3.14649 6.29164 3.3905 6.07039 4.24452 5.37646C6.01357 3.93831 8.10796 3.05329 10.3142 2.43982C12.9779 1.6956 17.0955 1.88668 19.7288 2.94267C20.8675 3.40529 22.3417 4.01876 23.3279 4.7831L24.8326 5.94971C25.4223 6.43244 26.5101 7.59905 26.988 8.25275C27.2625 8.61481 27.4556 8.88634 27.7302 9.25845C28.5943 10.4653 29.6212 12.8589 29.8754 14.2769C30.0787 15.4033 30.2719 16.1575 30.3024 17.3946C30.3227 18.4706 30.0685 20.2206 30.1702 20.7033C30.3227 20.653 30.2617 20.7134 30.3431 20.5524C30.3532 20.5223 30.3736 20.4016 30.3837 20.3614C30.4956 19.768 30.6481 19.4663 30.6786 19.2048C30.7497 18.6215 30.8819 18.0885 30.9327 17.5253C31.0649 15.9765 31.0344 13.5729 30.5464 12.1247C30.4549 11.8632 30.4244 11.6319 30.3532 11.3503C29.9974 10.0831 28.8689 7.69962 28.086 6.74421C27.11 5.53737 27.3336 5.68822 26.2763 4.6423L25.5138 3.93831C24.9647 3.4254 23.582 2.40965 22.9415 2.10794C21.63 1.47435 21.7418 1.45423 20.227 0.891043C19.2916 0.549106 18.1631 0.227282 17.065 0.116656C13.4151 -0.225282 10.7717 0.146826 7.59961 1.73583C7.47761 1.79617 7.3861 1.80623 7.25393 1.86657L6.02373 2.6309C5.60689 2.90244 5.28155 3.11364 4.88504 3.43546C3.99035 4.16962 3.11599 4.97418 2.39414 5.88936L1.96713 6.43244C1.36728 7.24706 0.950432 7.8907 0.492919 8.81595C0.228579 9.36908 -0.127264 9.87193 0.0455739 10.1837Z" fill="#43B9AA"/>
<path fill-rule="evenodd" clip-rule="evenodd" d="M15.6114 10.7369C15.7944 10.7369 15.9469 10.8878 15.9469 11.0688C15.9469 11.2599 15.7944 11.4107 15.6114 11.4107C15.4182 11.4107 15.2657 11.2599 15.2657 11.0688C15.2657 10.8878 15.4182 10.7369 15.6114 10.7369Z" fill="#43B9AA"/>
<path fill-rule="evenodd" clip-rule="evenodd" d="M14.8081 10.0027C15.0012 10.0027 15.1741 10.1637 15.1741 10.3648C15.1741 10.5659 15.0012 10.7369 14.8081 10.7369C14.6048 10.7369 14.432 10.5659 14.432 10.3648C14.432 10.1637 14.6048 10.0027 14.8081 10.0027Z" fill="#43B9AA"/>
<path fill-rule="evenodd" clip-rule="evenodd" d="M13.7608 9.3591C14.015 9.3591 14.2082 9.55018 14.2082 9.79155C14.2082 10.0329 14.015 10.2341 13.7608 10.2341C13.5168 10.2341 13.3236 10.0329 13.3236 9.79155C13.3236 9.55018 13.5168 9.3591 13.7608 9.3591Z" fill="#43B9AA"/>
<path fill-rule="evenodd" clip-rule="evenodd" d="M12.3881 8.82608C12.7032 8.82608 12.9675 9.0775 12.9675 9.39933C12.9675 9.71109 12.7032 9.97258 12.3881 9.97258C12.0627 9.97258 11.8086 9.71109 11.8086 9.39933C11.8086 9.0775 12.0627 8.82608 12.3881 8.82608Z" fill="#43B9AA"/>
<path fill-rule="evenodd" clip-rule="evenodd" d="M10.6902 8.62494C11.0562 8.62494 11.3612 8.91659 11.3612 9.27864C11.3612 9.64069 11.0562 9.9424 10.6902 9.9424C10.3242 9.9424 10.0294 9.64069 10.0294 9.27864C10.0294 8.91659 10.3242 8.62494 10.6902 8.62494Z" fill="#43B9AA"/>
<path fill-rule="evenodd" clip-rule="evenodd" d="M8.69779 8.90656C9.11457 8.90656 9.45002 9.23844 9.45002 9.65077C9.45002 10.0631 9.11457 10.395 8.69779 10.395C8.28101 10.395 7.94556 10.0631 7.94556 9.65077C7.94556 9.23844 8.28101 8.90656 8.69779 8.90656Z" fill="#43B9AA"/>
<path fill-rule="evenodd" clip-rule="evenodd" d="M15.0622 11.9437C15.2656 11.8934 15.4791 12.0041 15.5401 12.2153C15.6011 12.4164 15.4791 12.6175 15.2757 12.6779C15.0724 12.7382 14.8589 12.6175 14.7978 12.4164C14.747 12.2153 14.8589 12.0041 15.0622 11.9437Z" fill="#43B9AA"/>
<path fill-rule="evenodd" clip-rule="evenodd" d="M13.9641 11.3403C14.1878 11.28 14.4116 11.4107 14.4726 11.6219C14.5336 11.8432 14.4116 12.0745 14.1878 12.1348C13.9641 12.1952 13.7404 12.0644 13.6794 11.8532C13.6082 11.632 13.7404 11.4007 13.9641 11.3403Z" fill="#43B9AA"/>
<path fill-rule="evenodd" clip-rule="evenodd" d="M12.5206 10.8878C12.7951 10.8073 13.0696 10.9682 13.1408 11.2297C13.2221 11.4912 13.0594 11.7627 12.7951 11.8432C12.5308 11.9136 12.2563 11.7627 12.1749 11.5012C12.1038 11.2297 12.2563 10.9582 12.5206 10.8878Z" fill="#43B9AA"/>
<path fill-rule="evenodd" clip-rule="evenodd" d="M10.8228 10.6765C11.1786 10.586 11.5344 10.7771 11.6361 11.1291C11.7377 11.471 11.5344 11.8331 11.1786 11.9236C10.8329 12.0242 10.467 11.823 10.3755 11.4811C10.2738 11.1391 10.4771 10.7771 10.8228 10.6765Z" fill="#43B9AA"/>
<path fill-rule="evenodd" clip-rule="evenodd" d="M8.7691 10.8978C9.16567 10.7872 9.58257 11.0084 9.69443 11.4107C9.81645 11.8029 9.58257 12.2152 9.17583 12.3259C8.77926 12.4365 8.36236 12.2152 8.2505 11.813C8.13865 11.4207 8.37253 11.0084 8.7691 10.8978Z" fill="#43B9AA"/>
<path fill-rule="evenodd" clip-rule="evenodd" d="M6.59315 11.7728C7.04048 11.6521 7.50815 11.9035 7.64032 12.3561C7.76232 12.7986 7.49799 13.2612 7.05065 13.392C6.60332 13.5127 6.13565 13.2612 6.00348 12.8087C5.88148 12.3662 6.13565 11.9035 6.59315 11.7728Z" fill="#43B9AA"/>
<path fill-rule="evenodd" clip-rule="evenodd" d="M14.7269 13.3719C14.9505 13.2512 15.2249 13.3316 15.3367 13.5428C15.4587 13.7641 15.3774 14.0356 15.1538 14.1563C14.9403 14.2669 14.6659 14.1865 14.5439 13.9753C14.4321 13.754 14.5134 13.4825 14.7269 13.3719Z" fill="#43B9AA"/>
<path fill-rule="evenodd" clip-rule="evenodd" d="M13.3031 12.9595C13.5472 12.8287 13.842 12.9192 13.9641 13.1505C14.0962 13.3819 14.0047 13.6735 13.7709 13.8043C13.537 13.935 13.2421 13.8445 13.11 13.6132C12.9879 13.3718 13.0693 13.0802 13.3031 12.9595Z" fill="#43B9AA"/>
<path fill-rule="evenodd" clip-rule="evenodd" d="M11.5446 12.7986C11.8292 12.6477 12.1851 12.7483 12.3376 13.0299C12.5003 13.3115 12.3884 13.6735 12.1037 13.8244C11.8191 13.9752 11.4632 13.8746 11.3005 13.583C11.148 13.3014 11.2599 12.9494 11.5446 12.7986Z" fill="#43B9AA"/>
<path fill-rule="evenodd" clip-rule="evenodd" d="M9.54155 12.9896C9.91775 12.7885 10.3855 12.9293 10.5888 13.3014C10.7922 13.6735 10.6498 14.126 10.2838 14.3272C9.90758 14.5283 9.43987 14.3976 9.23652 14.0255C9.03317 13.6534 9.17552 13.1907 9.54155 12.9896Z" fill="#43B9AA"/>
<path fill-rule="evenodd" clip-rule="evenodd" d="M7.25407 13.764C7.68108 13.5327 8.20977 13.6936 8.44362 14.116C8.67746 14.5384 8.51479 15.0714 8.08777 15.3027C7.66075 15.524 7.12189 15.3731 6.89822 14.9507C6.66437 14.5183 6.81688 13.9953 7.25407 13.764Z" fill="#43B9AA"/>
<path fill-rule="evenodd" clip-rule="evenodd" d="M4.98668 15.3229C5.46454 15.0614 6.07458 15.2424 6.33893 15.7151C6.59311 16.1978 6.42027 16.7912 5.93224 17.0527C5.45438 17.3141 4.84434 17.1331 4.57999 16.6604C4.32581 16.1777 4.49865 15.5843 4.98668 15.3229Z" fill="#43B9AA"/>
<path fill-rule="evenodd" clip-rule="evenodd" d="M8.93141 16.6705C8.83992 16.5096 8.89075 16.2984 9.05341 16.2079C9.21607 16.1073 9.4194 16.1576 9.52106 16.3185C9.61256 16.4794 9.56173 16.6805 9.39907 16.7811C9.23641 16.8817 9.03308 16.8213 8.93141 16.6705Z" fill="#43B9AA"/>
<path fill-rule="evenodd" clip-rule="evenodd" d="M8.71755 17.7265C8.61589 17.5555 8.66672 17.3242 8.83955 17.2236C9.02254 17.123 9.2462 17.1733 9.34787 17.3443C9.44953 17.5253 9.3987 17.7466 9.22587 17.8471C9.05304 17.9477 8.81921 17.8974 8.71755 17.7265Z" fill="#43B9AA"/>
<path fill-rule="evenodd" clip-rule="evenodd" d="M8.69749 18.9333C8.56531 18.7322 8.63648 18.4606 8.83984 18.3399C9.05336 18.2092 9.32788 18.2796 9.4499 18.4807C9.58208 18.6919 9.5109 18.9635 9.29738 19.0842C9.09403 19.2149 8.8195 19.1445 8.69749 18.9333Z" fill="#43B9AA"/>
<path fill-rule="evenodd" clip-rule="evenodd" d="M8.94137 20.3815C8.77867 20.11 8.86002 19.758 9.13458 19.5971C9.40914 19.4362 9.76505 19.5166 9.93792 19.7882C10.1006 20.0597 10.0091 20.4117 9.73454 20.5827C9.45998 20.7436 9.10407 20.6531 8.94137 20.3815Z" fill="#43B9AA"/>
<path fill-rule="evenodd" clip-rule="evenodd" d="M9.64303 21.9202C9.44987 21.6085 9.55153 21.2062 9.86669 21.0151C10.1818 20.8341 10.5885 20.9346 10.7817 21.2464C10.9748 21.5582 10.8732 21.9604 10.558 22.1415C10.2428 22.3326 9.83619 22.232 9.64303 21.9202Z" fill="#43B9AA"/>
<path fill-rule="evenodd" clip-rule="evenodd" d="M10.9242 23.459C10.7107 23.107 10.8225 22.6544 11.1784 22.4432C11.5342 22.232 11.9917 22.3427 12.2052 22.6946C12.4187 23.0466 12.3069 23.4992 11.951 23.7104C11.5952 23.9216 11.1377 23.811 10.9242 23.459Z" fill="#43B9AA"/>
<path fill-rule="evenodd" clip-rule="evenodd" d="M10.2632 16.4995C10.1106 16.3587 10.1005 16.1173 10.253 15.9665C10.3954 15.8056 10.6394 15.8056 10.7919 15.9464C10.9445 16.0872 10.9546 16.3285 10.8123 16.4794C10.6597 16.6303 10.4259 16.6403 10.2632 16.4995Z" fill="#43B9AA"/>
<path fill-rule="evenodd" clip-rule="evenodd" d="M10.3141 17.7466C10.1413 17.5958 10.1311 17.3343 10.2938 17.1633C10.4463 17.0024 10.7107 16.9923 10.8836 17.1432C11.0463 17.3041 11.0564 17.5656 10.9039 17.7265C10.7412 17.8975 10.4768 17.8975 10.3141 17.7466Z" fill="#43B9AA"/>
<path fill-rule="evenodd" clip-rule="evenodd" d="M10.6598 19.2049C10.4565 19.0138 10.4463 18.702 10.6395 18.5009C10.8224 18.2998 11.1376 18.2897 11.3409 18.4808C11.5442 18.6618 11.5543 18.9836 11.3714 19.1747C11.1782 19.3759 10.8631 19.3859 10.6598 19.2049Z" fill="#43B9AA"/>
<path fill-rule="evenodd" clip-rule="evenodd" d="M11.3512 20.7435C11.0869 20.5022 11.0767 20.0898 11.3207 19.8283C11.5749 19.5669 11.9917 19.5568 12.2561 19.7982C12.5204 20.0496 12.5306 20.4519 12.2866 20.7134C12.0324 20.9748 11.6156 20.995 11.3512 20.7435Z" fill="#43B9AA"/>
<path fill-rule="evenodd" clip-rule="evenodd" d="M12.6015 22.3828C12.2965 22.1012 12.2863 21.6285 12.571 21.3268C12.8557 21.0251 13.3336 21.015 13.6285 21.2966C13.9335 21.5782 13.9538 22.0408 13.6691 22.3426C13.3845 22.6443 12.9066 22.6644 12.6015 22.3828Z" fill="#43B9AA"/>
<path fill-rule="evenodd" clip-rule="evenodd" d="M14.4927 23.7707C14.147 23.4589 14.1267 22.9259 14.452 22.5839C14.7672 22.242 15.3061 22.232 15.6518 22.5437C15.9873 22.8655 16.0076 23.3986 15.6925 23.7304C15.3671 24.0724 14.8282 24.0925 14.4927 23.7707Z" fill="#43B9AA"/>
<path fill-rule="evenodd" clip-rule="evenodd" d="M11.6663 16.057C11.4528 15.9263 11.3817 15.6547 11.5138 15.4435C11.6358 15.2323 11.9104 15.1619 12.1239 15.2826C12.3374 15.4134 12.4085 15.6849 12.2865 15.8961C12.1645 16.1073 11.8799 16.1777 11.6663 16.057Z" fill="#43B9AA"/>
<path fill-rule="evenodd" clip-rule="evenodd" d="M12.0426 17.4649C11.8087 17.3342 11.7376 17.0425 11.8697 16.8112C12.0121 16.5799 12.3069 16.4994 12.5408 16.6402C12.7746 16.771 12.8458 17.0727 12.7136 17.2939C12.5814 17.5253 12.2764 17.6057 12.0426 17.4649Z" fill="#43B9AA"/>
<path fill-rule="evenodd" clip-rule="evenodd" d="M12.8153 19.0439C12.5408 18.883 12.4493 18.5209 12.612 18.2494C12.7746 17.9678 13.1406 17.8773 13.4151 18.0382C13.6997 18.2092 13.7912 18.5612 13.6286 18.8428C13.4659 19.1143 13.0999 19.2048 12.8153 19.0439Z" fill="#43B9AA"/>
<path fill-rule="evenodd" clip-rule="evenodd" d="M14.0146 20.6329C13.6487 20.4217 13.5267 19.9591 13.7503 19.597C13.9638 19.235 14.4314 19.1143 14.7973 19.3255C15.1633 19.5367 15.2853 20.0094 15.0718 20.3714C14.8583 20.7335 14.3806 20.8541 14.0146 20.6329Z" fill="#43B9AA"/>
<path fill-rule="evenodd" clip-rule="evenodd" d="M15.865 22.1817C15.4482 21.9404 15.3059 21.4073 15.56 20.995C15.804 20.5726 16.3428 20.4318 16.7697 20.6832C17.1865 20.9246 17.3288 21.4576 17.0747 21.88C16.8307 22.2923 16.2919 22.4331 15.865 22.1817Z" fill="#43B9AA"/>
<path fill-rule="evenodd" clip-rule="evenodd" d="M18.3867 23.298C17.919 23.0264 17.7563 22.423 18.041 21.9503C18.3155 21.4877 18.9255 21.3268 19.4033 21.6084C19.871 21.8799 20.0337 22.4834 19.749 22.956C19.4745 23.4187 18.8645 23.5796 18.3867 23.298Z" fill="#43B9AA"/>
<path fill-rule="evenodd" clip-rule="evenodd" d="M17.3502 19.3959C17.2485 19.5568 17.0451 19.6071 16.8823 19.5166C16.7196 19.416 16.6688 19.2148 16.7603 19.0539C16.8518 18.893 17.0654 18.8427 17.2281 18.9332C17.3909 19.0238 17.4417 19.235 17.3502 19.3959Z" fill="#43B9AA"/>
<path fill-rule="evenodd" clip-rule="evenodd" d="M18.3869 19.0741C18.2853 19.245 18.0616 19.3054 17.8888 19.2048C17.7159 19.1042 17.6549 18.883 17.7566 18.712C17.8583 18.531 18.0819 18.4807 18.2548 18.5813C18.4378 18.6818 18.4886 18.9031 18.3869 19.0741Z" fill="#43B9AA"/>
<path fill-rule="evenodd" clip-rule="evenodd" d="M19.4747 18.521C19.3527 18.7221 19.0884 18.7925 18.875 18.6719C18.6615 18.5512 18.5903 18.2796 18.7123 18.0785C18.8343 17.8673 19.1087 17.7969 19.3222 17.9176C19.5357 18.0383 19.6068 18.3098 19.4747 18.521Z" fill="#43B9AA"/>
<path fill-rule="evenodd" clip-rule="evenodd" d="M20.6439 17.6158C20.4813 17.8873 20.1254 17.9779 19.8509 17.8169C19.5764 17.656 19.4849 17.304 19.6476 17.0325C19.8103 16.761 20.1559 16.6705 20.4406 16.8314C20.7151 16.9822 20.8066 17.3342 20.6439 17.6158Z" fill="#43B9AA"/>
<path fill-rule="evenodd" clip-rule="evenodd" d="M21.6706 16.2681C21.4876 16.5799 21.081 16.6804 20.7658 16.4994C20.4507 16.3184 20.3389 15.9161 20.532 15.6044C20.715 15.2825 21.1216 15.182 21.4368 15.363C21.7519 15.5541 21.8638 15.9563 21.6706 16.2681Z" fill="#43B9AA"/>
<path fill-rule="evenodd" clip-rule="evenodd" d="M22.4334 14.4177C22.2199 14.7697 21.7626 14.8903 21.4068 14.6791C21.051 14.478 20.9291 14.0254 21.1425 13.6735C21.3458 13.3114 21.8032 13.2008 22.159 13.4019C22.5249 13.6131 22.6367 14.0657 22.4334 14.4177Z" fill="#43B9AA"/>
<path fill-rule="evenodd" clip-rule="evenodd" d="M16.557 18.3199C16.5061 18.521 16.3027 18.6417 16.0891 18.5914C15.8857 18.5311 15.7637 18.3299 15.8145 18.1288C15.8755 17.9176 16.079 17.7969 16.2824 17.8572C16.496 17.9075 16.618 18.1087 16.557 18.3199Z" fill="#43B9AA"/>
<path fill-rule="evenodd" clip-rule="evenodd" d="M17.6448 17.6762C17.5939 17.8974 17.3601 18.0282 17.1364 17.9779C16.9229 17.9175 16.7806 17.6963 16.8416 17.475C16.9026 17.2538 17.1263 17.123 17.3499 17.1834C17.5736 17.2337 17.7058 17.465 17.6448 17.6762Z" fill="#43B9AA"/>
<path fill-rule="evenodd" clip-rule="evenodd" d="M18.7732 16.6806C18.702 16.9521 18.4276 17.113 18.1634 17.0426C17.8991 16.9722 17.7365 16.7007 17.8076 16.4292C17.8686 16.1677 18.143 16.0068 18.4174 16.0772C18.6817 16.1476 18.8443 16.4191 18.7732 16.6806Z" fill="#43B9AA"/>
<path fill-rule="evenodd" clip-rule="evenodd" d="M19.8107 15.3429C19.7191 15.6849 19.3632 15.896 19.0175 15.8055C18.6616 15.715 18.4481 15.363 18.5396 15.011C18.6311 14.6691 18.9972 14.4579 19.3429 14.5484C19.6988 14.6389 19.9022 14.9909 19.8107 15.3429Z" fill="#43B9AA"/>
<path fill-rule="evenodd" clip-rule="evenodd" d="M20.6647 13.4723C20.563 13.8746 20.1461 14.116 19.7496 14.0053C19.3428 13.9048 19.0988 13.5025 19.2106 13.1002C19.3123 12.6979 19.7292 12.4666 20.1258 12.5672C20.5325 12.6678 20.7664 13.0801 20.6647 13.4723Z" fill="#43B9AA"/>
<path fill-rule="evenodd" clip-rule="evenodd" d="M21.0002 11.1693C20.8782 11.6219 20.4206 11.8935 19.963 11.7728C19.5157 11.6521 19.2411 11.1995 19.3631 10.747C19.475 10.3044 19.9427 10.0329 20.3901 10.1435C20.8477 10.2642 21.1222 10.7268 21.0002 11.1693Z" fill="#43B9AA"/>
<path fill-rule="evenodd" clip-rule="evenodd" d="M15.4996 17.3142C15.4895 17.5555 15.276 17.7466 15.0321 17.7366C14.7779 17.7366 14.5848 17.5254 14.595 17.284C14.6052 17.0326 14.8084 16.8415 15.0626 16.8515C15.3065 16.8616 15.4996 17.0627 15.4996 17.3142Z" fill="#43B9AA"/>
<path fill-rule="evenodd" clip-rule="evenodd" d="M16.5768 16.3084C16.5667 16.5699 16.3329 16.7811 16.0687 16.771C15.8044 16.761 15.591 16.5397 15.6012 16.2782C15.6113 16.0067 15.8349 15.7955 16.0992 15.8056C16.3736 15.8156 16.5768 16.0369 16.5768 16.3084Z" fill="#43B9AA"/>
<path fill-rule="evenodd" clip-rule="evenodd" d="M17.6041 14.8804C17.594 15.2022 17.3194 15.4536 16.9941 15.4435C16.6687 15.4335 16.4146 15.1619 16.4247 14.8401C16.4349 14.5183 16.7094 14.2669 17.0348 14.2769C17.3601 14.287 17.6143 14.5585 17.6041 14.8804Z" fill="#43B9AA"/>
<path fill-rule="evenodd" clip-rule="evenodd" d="M18.438 13.0802C18.4278 13.5026 18.0719 13.8244 17.6448 13.8143C17.2279 13.7942 16.8923 13.4422 16.9024 13.0299C16.9228 12.6075 17.2787 12.2756 17.6956 12.2957C18.1227 12.3058 18.4583 12.6578 18.438 13.0802Z" fill="#43B9AA"/>
<path fill-rule="evenodd" clip-rule="evenodd" d="M18.936 10.7269C18.9157 11.2096 18.509 11.5918 18.021 11.5716C17.5331 11.5515 17.1569 11.1493 17.1671 10.6665C17.1874 10.1838 17.5941 9.81168 18.082 9.82173C18.57 9.84185 18.9462 10.2441 18.936 10.7269Z" fill="#43B9AA"/>
<path fill-rule="evenodd" clip-rule="evenodd" d="M18.7229 8.01144C18.7026 8.55452 18.2348 8.97691 17.6857 8.9568C17.1366 8.93668 16.7095 8.48412 16.7298 7.94104C16.7502 7.39796 17.2078 6.97557 17.7569 6.99568C18.306 7.00574 18.7331 7.46836 18.7229 8.01144Z" fill="#43B9AA"/>
</svg>
